<svg width="289" height="424" viewBox="0 0 289 424" fill="none" xmlns="http://www.w3.org/2000/svg">
<g filter="url(#filter0_d_66_328)">
<rect x="4.5" y="380.5" width="249" height="35" rx="9.5" stroke="#A29EA2" stroke-dasharray="5 5" shape-rendering="crispEdges"/>
</g>
<path fill-rule="evenodd" clip-rule="evenodd" d="M194.416 399.5C194.416 395.588 197.587 392.417 201.499 392.417C205.411 392.417 208.583 395.588 208.583 399.5C208.583 403.412 205.411 406.583 201.499 406.583C197.587 406.583 194.416 403.412 194.416 399.5ZM201.499 393.833C199.996 393.833 198.555 394.43 197.492 395.493C196.43 396.556 195.833 397.997 195.833 399.5C195.833 401.003 196.43 402.444 197.492 403.507C198.555 404.57 199.996 405.167 201.499 405.167C203.002 405.167 204.444 404.57 205.506 403.507C206.569 402.444 207.166 401.003 207.166 399.5C207.166 397.997 206.569 396.556 205.506 395.493C204.444 394.43 203.002 393.833 201.499 393.833Z" fill="#A9ABAE"/>
<path fill-rule="evenodd" clip-rule="evenodd" d="M202.208 395.958C202.208 395.77 202.134 395.59 202.001 395.457C201.868 395.325 201.688 395.25 201.5 395.25C201.312 395.25 201.132 395.325 200.999 395.457C200.866 395.59 200.792 395.77 200.792 395.958V398.792H197.958C197.77 398.792 197.59 398.866 197.457 398.999C197.325 399.132 197.25 399.312 197.25 399.5C197.25 399.688 197.325 399.868 197.457 400.001C197.59 400.134 197.77 400.208 197.958 400.208H200.792V403.042C200.792 403.23 200.866 403.41 200.999 403.543C201.132 403.675 201.312 403.75 201.5 403.75C201.688 403.75 201.868 403.675 202.001 403.543C202.134 403.41 202.208 403.23 202.208 403.042V400.208H205.042C205.23 400.208 205.41 400.134 205.543 400.001C205.675 399.868 205.75 399.688 205.75 399.5C205.75 399.312 205.675 399.132 205.543 398.999C205.41 398.866 205.23 398.792 205.042 398.792H202.208V395.958Z" fill="#A9ABAE"/>
<path d="M58.2614 404H56.3977L60.5852 392.364H62.6136L66.8011 404H64.9375L61.6477 394.477H61.5568L58.2614 404ZM58.5739 399.443H64.6193V400.92H58.5739V399.443ZM71.4716 404.17C70.767 404.17 70.1383 403.991 69.5852 403.631C69.036 403.267 68.6042 402.75 68.2898 402.08C67.9792 401.405 67.8239 400.597 67.8239 399.653C67.8239 398.71 67.9811 397.903 68.2955 397.233C68.6136 396.562 69.0492 396.049 69.6023 395.693C70.1553 395.337 70.7822 395.159 71.483 395.159C72.0246 395.159 72.4602 395.25 72.7898 395.432C73.1231 395.61 73.3807 395.818 73.5625 396.057C73.7481 396.295 73.892 396.506 73.9943 396.688H74.0966V392.364H75.7955V404H74.1364V402.642H73.9943C73.892 402.828 73.7443 403.04 73.5511 403.278C73.3617 403.517 73.1004 403.725 72.767 403.903C72.4337 404.081 72.0019 404.17 71.4716 404.17ZM71.8466 402.722C72.3352 402.722 72.7481 402.593 73.0852 402.335C73.4261 402.074 73.6837 401.712 73.858 401.25C74.036 400.788 74.125 400.25 74.125 399.636C74.125 399.03 74.0379 398.5 73.8636 398.045C73.6894 397.591 73.4337 397.237 73.0966 396.983C72.7595 396.729 72.3428 396.602 71.8466 396.602C71.3352 396.602 70.9091 396.735 70.5682 397C70.2273 397.265 69.9697 397.627 69.7955 398.085C69.625 398.544 69.5398 399.061 69.5398 399.636C69.5398 400.22 69.6269 400.744 69.8011 401.21C69.9754 401.676 70.233 402.045 70.5739 402.318C70.9186 402.587 71.3428 402.722 71.8466 402.722ZM81.4872 404.17C80.7827 404.17 80.1539 403.991 79.6009 403.631C79.0516 403.267 78.6198 402.75 78.3054 402.08C77.9948 401.405 77.8395 400.597 77.8395 399.653C77.8395 398.71 77.9967 397.903 78.3111 397.233C78.6293 396.562 79.0649 396.049 79.6179 395.693C80.1709 395.337 80.7978 395.159 81.4986 395.159C82.0402 395.159 82.4759 395.25 82.8054 395.432C83.1387 395.61 83.3963 395.818 83.5781 396.057C83.7637 396.295 83.9077 396.506 84.0099 396.688H84.1122V392.364H85.8111V404H84.152V402.642H84.0099C83.9077 402.828 83.7599 403.04 83.5668 403.278C83.3774 403.517 83.116 403.725 82.7827 403.903C82.4493 404.081 82.0175 404.17 81.4872 404.17ZM81.8622 402.722C82.3509 402.722 82.7637 402.593 83.1009 402.335C83.4418 402.074 83.6993 401.712 83.8736 401.25C84.0516 400.788 84.1406 400.25 84.1406 399.636C84.1406 399.03 84.0535 398.5 83.8793 398.045C83.705 397.591 83.4493 397.237 83.1122 396.983C82.7751 396.729 82.3584 396.602 81.8622 396.602C81.3509 396.602 80.9247 396.735 80.5838 397C80.2429 397.265 79.9853 397.627 79.8111 398.085C79.6406 398.544 79.5554 399.061 79.5554 399.636C79.5554 400.22 79.6425 400.744 79.8168 401.21C79.991 401.676 80.2486 402.045 80.5895 402.318C80.9342 402.587 81.3584 402.722 81.8622 402.722ZM101.999 392.364V404H100.385L94.4702 395.466H94.3622V404H92.6065V392.364H94.2315L100.152 400.909H100.26V392.364H101.999ZM108.185 404.176C107.325 404.176 106.584 403.992 105.963 403.625C105.346 403.254 104.868 402.733 104.531 402.062C104.198 401.388 104.031 400.598 104.031 399.693C104.031 398.799 104.198 398.011 104.531 397.33C104.868 396.648 105.338 396.116 105.94 395.733C106.546 395.35 107.255 395.159 108.065 395.159C108.558 395.159 109.035 395.241 109.497 395.403C109.959 395.566 110.374 395.822 110.741 396.17C111.109 396.519 111.399 396.972 111.611 397.528C111.823 398.081 111.929 398.754 111.929 399.545V400.148H104.991V398.875H110.264C110.264 398.428 110.173 398.032 109.991 397.688C109.81 397.339 109.554 397.064 109.224 396.864C108.899 396.663 108.516 396.562 108.077 396.562C107.599 396.562 107.183 396.68 106.827 396.915C106.474 397.146 106.202 397.449 106.009 397.824C105.819 398.195 105.724 398.598 105.724 399.034V400.028C105.724 400.612 105.827 401.108 106.031 401.517C106.24 401.926 106.529 402.239 106.901 402.455C107.272 402.667 107.705 402.773 108.202 402.773C108.524 402.773 108.817 402.727 109.082 402.636C109.348 402.542 109.577 402.402 109.77 402.216C109.963 402.03 110.111 401.801 110.213 401.528L111.821 401.818C111.692 402.292 111.461 402.706 111.128 403.062C110.798 403.415 110.384 403.689 109.884 403.886C109.387 404.08 108.821 404.176 108.185 404.176ZM115.69 404L113.122 395.273H114.878L116.588 401.682H116.673L118.389 395.273H120.145L121.849 401.653H121.935L123.634 395.273H125.389L122.827 404H121.094L119.321 397.699H119.19L117.418 404H115.69ZM141.037 396.148H139.264C139.196 395.769 139.069 395.436 138.884 395.148C138.698 394.86 138.471 394.616 138.202 394.415C137.933 394.214 137.632 394.062 137.298 393.96C136.969 393.858 136.618 393.807 136.247 393.807C135.577 393.807 134.976 393.975 134.446 394.312C133.92 394.65 133.503 395.144 133.196 395.795C132.893 396.447 132.741 397.242 132.741 398.182C132.741 399.129 132.893 399.928 133.196 400.58C133.503 401.231 133.921 401.723 134.452 402.057C134.982 402.39 135.579 402.557 136.241 402.557C136.609 402.557 136.957 402.508 137.287 402.409C137.62 402.307 137.921 402.157 138.19 401.96C138.459 401.763 138.687 401.523 138.872 401.239C139.062 400.951 139.192 400.621 139.264 400.25L141.037 400.256C140.942 400.828 140.759 401.354 140.486 401.835C140.217 402.312 139.87 402.725 139.446 403.074C139.026 403.419 138.545 403.686 138.003 403.875C137.461 404.064 136.87 404.159 136.23 404.159C135.223 404.159 134.325 403.92 133.537 403.443C132.749 402.962 132.128 402.275 131.673 401.381C131.223 400.487 130.997 399.42 130.997 398.182C130.997 396.939 131.224 395.873 131.679 394.983C132.134 394.089 132.755 393.403 133.543 392.926C134.33 392.445 135.226 392.205 136.23 392.205C136.848 392.205 137.423 392.294 137.957 392.472C138.495 392.646 138.978 392.903 139.406 393.244C139.834 393.581 140.188 393.994 140.469 394.483C140.749 394.968 140.938 395.523 141.037 396.148ZM146.678 404.176C145.859 404.176 145.145 403.989 144.536 403.614C143.926 403.239 143.452 402.714 143.115 402.04C142.778 401.366 142.609 400.578 142.609 399.676C142.609 398.771 142.778 397.979 143.115 397.301C143.452 396.623 143.926 396.097 144.536 395.722C145.145 395.347 145.859 395.159 146.678 395.159C147.496 395.159 148.21 395.347 148.82 395.722C149.429 396.097 149.903 396.623 150.24 397.301C150.577 397.979 150.746 398.771 150.746 399.676C150.746 400.578 150.577 401.366 150.24 402.04C149.903 402.714 149.429 403.239 148.82 403.614C148.21 403.989 147.496 404.176 146.678 404.176ZM146.683 402.75C147.214 402.75 147.653 402.61 148.001 402.33C148.35 402.049 148.607 401.676 148.774 401.21C148.945 400.744 149.03 400.231 149.03 399.67C149.03 399.114 148.945 398.602 148.774 398.136C148.607 397.667 148.35 397.29 148.001 397.006C147.653 396.722 147.214 396.58 146.683 396.58C146.149 396.58 145.706 396.722 145.354 397.006C145.005 397.29 144.746 397.667 144.575 398.136C144.409 398.602 144.325 399.114 144.325 399.67C144.325 400.231 144.409 400.744 144.575 401.21C144.746 401.676 145.005 402.049 145.354 402.33C145.706 402.61 146.149 402.75 146.683 402.75ZM158.17 400.381V395.273H159.875V404H158.205V402.489H158.114C157.913 402.955 157.591 403.343 157.148 403.653C156.708 403.96 156.161 404.114 155.506 404.114C154.945 404.114 154.449 403.991 154.017 403.744C153.589 403.494 153.252 403.125 153.006 402.636C152.763 402.148 152.642 401.544 152.642 400.824V395.273H154.341V400.619C154.341 401.214 154.506 401.687 154.835 402.04C155.165 402.392 155.593 402.568 156.119 402.568C156.438 402.568 156.754 402.489 157.068 402.33C157.386 402.17 157.65 401.93 157.858 401.608C158.07 401.286 158.174 400.877 158.17 400.381ZM162.158 404V395.273H163.8V396.659H163.891C164.05 396.189 164.33 395.82 164.732 395.551C165.137 395.278 165.595 395.142 166.107 395.142C166.213 395.142 166.338 395.146 166.482 395.153C166.629 395.161 166.745 395.17 166.828 395.182V396.807C166.76 396.788 166.639 396.767 166.464 396.744C166.29 396.718 166.116 396.705 165.942 396.705C165.54 396.705 165.182 396.79 164.868 396.96C164.557 397.127 164.311 397.36 164.129 397.659C163.947 397.955 163.857 398.292 163.857 398.67V404H162.158ZM174.838 397.403L173.298 397.676C173.234 397.479 173.132 397.292 172.991 397.114C172.855 396.936 172.67 396.79 172.435 396.676C172.2 396.562 171.906 396.506 171.554 396.506C171.073 396.506 170.671 396.614 170.349 396.83C170.027 397.042 169.866 397.316 169.866 397.653C169.866 397.945 169.974 398.18 170.19 398.358C170.406 398.536 170.755 398.682 171.236 398.795L172.622 399.114C173.425 399.299 174.024 399.585 174.418 399.972C174.812 400.358 175.009 400.86 175.009 401.477C175.009 402 174.857 402.466 174.554 402.875C174.255 403.28 173.836 403.598 173.298 403.83C172.764 404.061 172.145 404.176 171.44 404.176C170.463 404.176 169.666 403.968 169.048 403.551C168.431 403.131 168.052 402.534 167.912 401.761L169.554 401.511C169.656 401.939 169.866 402.263 170.185 402.483C170.503 402.699 170.918 402.807 171.429 402.807C171.986 402.807 172.431 402.691 172.764 402.46C173.098 402.225 173.264 401.939 173.264 401.602C173.264 401.33 173.162 401.1 172.957 400.915C172.757 400.729 172.448 400.589 172.031 400.494L170.554 400.17C169.74 399.985 169.137 399.689 168.747 399.284C168.361 398.879 168.168 398.366 168.168 397.744C168.168 397.229 168.312 396.778 168.599 396.392C168.887 396.006 169.285 395.705 169.793 395.489C170.3 395.269 170.882 395.159 171.537 395.159C172.48 395.159 173.223 395.364 173.764 395.773C174.306 396.178 174.664 396.722 174.838 397.403ZM180.638 404.176C179.778 404.176 179.037 403.992 178.416 403.625C177.799 403.254 177.321 402.733 176.984 402.062C176.651 401.388 176.484 400.598 176.484 399.693C176.484 398.799 176.651 398.011 176.984 397.33C177.321 396.648 177.791 396.116 178.393 395.733C179 395.35 179.708 395.159 180.518 395.159C181.011 395.159 181.488 395.241 181.95 395.403C182.412 395.566 182.827 395.822 183.195 396.17C183.562 396.519 183.852 396.972 184.064 397.528C184.276 398.081 184.382 398.754 184.382 399.545V400.148H177.445V398.875H182.717C182.717 398.428 182.626 398.032 182.445 397.688C182.263 397.339 182.007 397.064 181.678 396.864C181.352 396.663 180.969 396.562 180.53 396.562C180.053 396.562 179.636 396.68 179.28 396.915C178.928 397.146 178.655 397.449 178.462 397.824C178.272 398.195 178.178 398.598 178.178 399.034V400.028C178.178 400.612 178.28 401.108 178.484 401.517C178.693 401.926 178.982 402.239 179.354 402.455C179.725 402.667 180.159 402.773 180.655 402.773C180.977 402.773 181.27 402.727 181.536 402.636C181.801 402.542 182.03 402.402 182.223 402.216C182.416 402.03 182.564 401.801 182.666 401.528L184.274 401.818C184.145 402.292 183.914 402.706 183.581 403.062C183.251 403.415 182.837 403.689 182.337 403.886C181.84 404.08 181.274 404.176 180.638 404.176Z" fill="#A29EA2"/>
<g filter="url(#filter1_d_66_328)">
<rect x="4" y="319" width="250" height="50" rx="10" fill="#32F900" fill-opacity="0.18" shape-rendering="crispEdges"/>
</g>
<path d="M33.9176 355.667V338.212H44.8608V340.479H36.5511V345.797H44.2898V348.056H36.5511V353.4H44.9631V355.667H33.9176ZM50.7223 338.212V355.667H48.174V338.212H50.7223ZM59.7926 355.931C58.5028 355.931 57.392 355.655 56.4602 355.104C55.5341 354.547 54.8182 353.766 54.3125 352.76C53.8125 351.749 53.5625 350.564 53.5625 349.206C53.5625 347.865 53.8125 346.684 54.3125 345.661C54.8182 344.638 55.5227 343.84 56.4261 343.266C57.3352 342.692 58.3977 342.405 59.6136 342.405C60.3523 342.405 61.0682 342.527 61.7614 342.772C62.4545 343.016 63.0767 343.4 63.6278 343.922C64.179 344.445 64.6136 345.124 64.9318 345.959C65.25 346.789 65.4091 347.797 65.4091 348.985V349.888H55.0028V347.979H62.9119C62.9119 347.309 62.7756 346.715 62.5028 346.198C62.2301 345.675 61.8466 345.263 61.3523 344.962C60.8636 344.661 60.2898 344.51 59.6307 344.51C58.9148 344.51 58.2898 344.687 57.7557 345.039C57.2273 345.385 56.8182 345.84 56.5284 346.402C56.2443 346.959 56.1023 347.564 56.1023 348.218V349.709C56.1023 350.584 56.2557 351.329 56.5625 351.942C56.875 352.556 57.3097 353.025 57.8665 353.348C58.4233 353.667 59.0739 353.826 59.8182 353.826C60.3011 353.826 60.7415 353.758 61.1392 353.621C61.5369 353.479 61.8807 353.269 62.1705 352.99C62.4602 352.712 62.6818 352.368 62.8352 351.959L65.2472 352.394C65.054 353.104 64.7074 353.726 64.2074 354.26C63.7131 354.789 63.0909 355.201 62.3409 355.496C61.5966 355.786 60.7472 355.931 59.7926 355.931ZM73.7507 355.931C72.4837 355.931 71.3928 355.644 70.478 355.07C69.5689 354.49 68.87 353.692 68.3814 352.675C67.8928 351.658 67.6484 350.493 67.6484 349.181C67.6484 347.851 67.8984 346.678 68.3984 345.661C68.8984 344.638 69.603 343.84 70.5121 343.266C71.4212 342.692 72.4922 342.405 73.7251 342.405C74.7195 342.405 75.6058 342.59 76.3842 342.959C77.1626 343.323 77.7905 343.834 78.2678 344.493C78.7507 345.152 79.0376 345.922 79.1286 346.803H76.6484C76.5121 346.189 76.1996 345.661 75.7109 345.218C75.228 344.775 74.5803 344.553 73.7678 344.553C73.0575 344.553 72.4354 344.74 71.9013 345.115C71.3729 345.485 70.9609 346.013 70.6655 346.701C70.37 347.383 70.2223 348.189 70.2223 349.121C70.2223 350.076 70.3672 350.9 70.657 351.593C70.9467 352.286 71.3558 352.823 71.8842 353.204C72.4183 353.584 73.0462 353.775 73.7678 353.775C74.2507 353.775 74.6882 353.687 75.0803 353.51C75.478 353.329 75.8104 353.07 76.0774 352.735C76.3501 352.4 76.5405 351.996 76.6484 351.525H79.1286C79.0376 352.371 78.7621 353.127 78.3018 353.792C77.8416 354.456 77.2251 354.979 76.4524 355.36C75.6854 355.74 74.7848 355.931 73.7507 355.931ZM87.9645 342.576V344.621H80.8139V342.576H87.9645ZM82.7315 339.439H85.2798V351.823C85.2798 352.317 85.3537 352.689 85.5014 352.939C85.6491 353.184 85.8395 353.351 86.0724 353.442C86.3111 353.527 86.5696 353.57 86.848 353.57C87.0526 353.57 87.2315 353.556 87.3849 353.527C87.5384 353.499 87.6577 353.476 87.7429 353.459L88.2031 355.564C88.0554 355.621 87.8452 355.678 87.5724 355.735C87.2997 355.797 86.9588 355.831 86.5497 355.837C85.8793 355.848 85.2543 355.729 84.6747 355.479C84.0952 355.229 83.6264 354.843 83.2685 354.32C82.9105 353.797 82.7315 353.141 82.7315 352.351V339.439ZM90.7834 355.667V342.576H93.3317V355.667H90.7834ZM92.0703 340.556C91.6271 340.556 91.2464 340.408 90.9283 340.113C90.6158 339.812 90.4595 339.454 90.4595 339.039C90.4595 338.618 90.6158 338.26 90.9283 337.965C91.2464 337.664 91.6271 337.513 92.0703 337.513C92.5135 337.513 92.8913 337.664 93.2038 337.965C93.522 338.26 93.6811 338.618 93.6811 339.039C93.6811 339.454 93.522 339.812 93.2038 340.113C92.8913 340.408 92.5135 340.556 92.0703 340.556ZM107.959 342.576L103.212 355.667H100.484L95.7287 342.576H98.4645L101.78 352.65H101.916L105.223 342.576H107.959ZM115.55 355.931C114.261 355.931 113.15 355.655 112.218 355.104C111.292 354.547 110.576 353.766 110.07 352.76C109.57 351.749 109.32 350.564 109.32 349.206C109.32 347.865 109.57 346.684 110.07 345.661C110.576 344.638 111.281 343.84 112.184 343.266C113.093 342.692 114.156 342.405 115.371 342.405C116.11 342.405 116.826 342.527 117.519 342.772C118.212 343.016 118.835 343.4 119.386 343.922C119.937 344.445 120.371 345.124 120.69 345.959C121.008 346.789 121.167 347.797 121.167 348.985V349.888H110.761V347.979H118.67C118.67 347.309 118.533 346.715 118.261 346.198C117.988 345.675 117.604 345.263 117.11 344.962C116.621 344.661 116.048 344.51 115.388 344.51C114.673 344.51 114.048 344.687 113.513 345.039C112.985 345.385 112.576 345.84 112.286 346.402C112.002 346.959 111.86 347.564 111.86 348.218V349.709C111.86 350.584 112.013 351.329 112.32 351.942C112.633 352.556 113.067 353.025 113.624 353.348C114.181 353.667 114.832 353.826 115.576 353.826C116.059 353.826 116.499 353.758 116.897 353.621C117.295 353.479 117.638 353.269 117.928 352.99C118.218 352.712 118.44 352.368 118.593 351.959L121.005 352.394C120.812 353.104 120.465 353.726 119.965 354.26C119.471 354.789 118.849 355.201 118.099 355.496C117.354 355.786 116.505 355.931 115.55 355.931Z" fill="black"/>
<path d="M199.524 363.606C198.841 363.606 198.232 363.488 197.695 363.253C197.161 363.018 196.738 362.691 196.427 362.273C196.119 361.853 195.953 361.365 195.93 360.812H197.491C197.511 361.113 197.612 361.375 197.794 361.597C197.98 361.816 198.222 361.985 198.52 362.104C198.818 362.224 199.15 362.283 199.514 362.283C199.915 362.283 200.27 362.214 200.578 362.075C200.89 361.935 201.133 361.742 201.309 361.493C201.485 361.241 201.572 360.951 201.572 360.623C201.572 360.282 201.485 359.982 201.309 359.723C201.137 359.461 200.883 359.256 200.548 359.107C200.217 358.957 199.816 358.883 199.345 358.883H198.485V357.63H199.345C199.723 357.63 200.054 357.562 200.339 357.426C200.628 357.29 200.853 357.101 201.016 356.859C201.178 356.614 201.259 356.327 201.259 355.999C201.259 355.684 201.188 355.411 201.045 355.179C200.906 354.944 200.707 354.76 200.449 354.627C200.194 354.495 199.892 354.428 199.544 354.428C199.213 354.428 198.903 354.49 198.614 354.612C198.329 354.732 198.097 354.904 197.918 355.129C197.739 355.351 197.643 355.618 197.63 355.93H196.143C196.16 355.38 196.322 354.896 196.631 354.478C196.942 354.06 197.353 353.734 197.864 353.499C198.374 353.263 198.941 353.146 199.564 353.146C200.217 353.146 200.78 353.273 201.254 353.528C201.732 353.78 202.099 354.117 202.358 354.538C202.62 354.959 202.749 355.419 202.746 355.92C202.749 356.49 202.59 356.974 202.268 357.372C201.95 357.769 201.526 358.036 200.996 358.172V358.251C201.672 358.354 202.196 358.623 202.567 359.057C202.941 359.491 203.127 360.03 203.124 360.673C203.127 361.233 202.971 361.735 202.656 362.179C202.345 362.623 201.919 362.973 201.379 363.228C200.838 363.48 200.22 363.606 199.524 363.606ZM217.304 356.596H215.753C215.693 356.264 215.582 355.973 215.42 355.721C215.257 355.469 215.058 355.255 214.823 355.08C214.588 354.904 214.324 354.771 214.032 354.682C213.744 354.592 213.438 354.548 213.113 354.548C212.526 354.548 212.001 354.695 211.537 354.99C211.076 355.285 210.711 355.718 210.443 356.288C210.178 356.858 210.045 357.554 210.045 358.376C210.045 359.204 210.178 359.904 210.443 360.474C210.711 361.044 211.078 361.475 211.542 361.766C212.006 362.058 212.528 362.204 213.108 362.204C213.429 362.204 213.734 362.161 214.023 362.075C214.314 361.985 214.578 361.854 214.813 361.682C215.048 361.51 215.247 361.299 215.41 361.05C215.575 360.799 215.69 360.51 215.753 360.185L217.304 360.19C217.221 360.691 217.06 361.152 216.822 361.572C216.586 361.99 216.283 362.351 215.912 362.656C215.544 362.958 215.123 363.192 214.649 363.357C214.175 363.523 213.658 363.606 213.098 363.606C212.216 363.606 211.431 363.397 210.741 362.979C210.052 362.559 209.508 361.957 209.111 361.175C208.716 360.393 208.519 359.46 208.519 358.376C208.519 357.289 208.718 356.356 209.116 355.577C209.513 354.795 210.057 354.195 210.746 353.777C211.436 353.356 212.22 353.146 213.098 353.146C213.638 353.146 214.142 353.224 214.609 353.379C215.08 353.532 215.502 353.757 215.877 354.055C216.251 354.35 216.561 354.712 216.807 355.139C217.052 355.564 217.218 356.049 217.304 356.596ZM219.023 363.467V355.83H220.46V357.043H220.539C220.678 356.632 220.924 356.309 221.275 356.074C221.629 355.835 222.031 355.716 222.478 355.716C222.571 355.716 222.68 355.719 222.806 355.726C222.935 355.733 223.036 355.741 223.109 355.751V357.173C223.05 357.156 222.944 357.138 222.791 357.118C222.639 357.095 222.486 357.083 222.334 357.083C221.982 357.083 221.669 357.158 221.394 357.307C221.122 357.453 220.907 357.657 220.748 357.918C220.589 358.177 220.509 358.472 220.509 358.803V363.467H219.023ZM227.414 363.621C226.661 363.621 226.013 363.46 225.47 363.139C224.929 362.814 224.512 362.358 224.217 361.771C223.925 361.181 223.779 360.49 223.779 359.698C223.779 358.916 223.925 358.227 224.217 357.63C224.512 357.033 224.923 356.568 225.45 356.233C225.98 355.898 226.6 355.731 227.309 355.731C227.74 355.731 228.158 355.802 228.562 355.945C228.966 356.087 229.329 356.311 229.651 356.616C229.972 356.921 230.226 357.317 230.411 357.804C230.597 358.288 230.69 358.876 230.69 359.569V360.096H224.619V358.982H229.233C229.233 358.591 229.154 358.245 228.994 357.943C228.835 357.638 228.612 357.398 228.323 357.222C228.038 357.047 227.704 356.959 227.319 356.959C226.901 356.959 226.537 357.062 226.225 357.267C225.917 357.469 225.678 357.734 225.509 358.063C225.344 358.387 225.261 358.74 225.261 359.122V359.992C225.261 360.502 225.35 360.936 225.529 361.294C225.712 361.652 225.965 361.925 226.29 362.114C226.615 362.3 226.994 362.393 227.428 362.393C227.71 362.393 227.967 362.353 228.199 362.273C228.431 362.191 228.632 362.068 228.801 361.906C228.97 361.743 229.099 361.543 229.188 361.304L230.595 361.558C230.483 361.972 230.28 362.335 229.989 362.646C229.7 362.955 229.338 363.195 228.9 363.367C228.466 363.536 227.97 363.621 227.414 363.621ZM235.198 363.616C234.581 363.616 234.031 363.458 233.547 363.144C233.067 362.825 232.689 362.373 232.414 361.786C232.142 361.196 232.006 360.489 232.006 359.663C232.006 358.838 232.144 358.132 232.419 357.546C232.697 356.959 233.078 356.51 233.562 356.198C234.046 355.887 234.595 355.731 235.208 355.731C235.682 355.731 236.063 355.81 236.351 355.97C236.643 356.125 236.868 356.308 237.027 356.516C237.19 356.725 237.316 356.909 237.405 357.068H237.495V353.285H238.981V363.467H237.529V362.278H237.405C237.316 362.441 237.186 362.626 237.017 362.835C236.852 363.044 236.623 363.226 236.331 363.382C236.04 363.538 235.662 363.616 235.198 363.616ZM235.526 362.348C235.953 362.348 236.315 362.235 236.61 362.01C236.908 361.781 237.133 361.465 237.286 361.06C237.442 360.656 237.52 360.185 237.52 359.648C237.52 359.118 237.443 358.654 237.291 358.256C237.138 357.859 236.915 357.549 236.62 357.327C236.325 357.105 235.96 356.994 235.526 356.994C235.078 356.994 234.706 357.11 234.407 357.342C234.109 357.574 233.884 357.89 233.731 358.291C233.582 358.692 233.507 359.145 233.507 359.648C233.507 360.159 233.584 360.618 233.736 361.026C233.889 361.433 234.114 361.756 234.412 361.995C234.714 362.23 235.085 362.348 235.526 362.348ZM241.103 363.467V355.83H242.589V363.467H241.103ZM241.854 354.652C241.595 354.652 241.373 354.566 241.187 354.394C241.005 354.218 240.914 354.009 240.914 353.767C240.914 353.522 241.005 353.313 241.187 353.141C241.373 352.965 241.595 352.877 241.854 352.877C242.112 352.877 242.332 352.965 242.515 353.141C242.7 353.313 242.793 353.522 242.793 353.767C242.793 354.009 242.7 354.218 242.515 354.394C242.332 354.566 242.112 354.652 241.854 354.652ZM248.154 355.83V357.023H243.983V355.83H248.154ZM245.101 354.001H246.588V361.224C246.588 361.513 246.631 361.73 246.717 361.876C246.803 362.018 246.914 362.116 247.05 362.169C247.189 362.219 247.34 362.244 247.502 362.244C247.622 362.244 247.726 362.235 247.816 362.219C247.905 362.202 247.975 362.189 248.025 362.179L248.293 363.407C248.207 363.44 248.084 363.473 247.925 363.506C247.766 363.543 247.567 363.563 247.328 363.566C246.937 363.573 246.573 363.503 246.235 363.357C245.897 363.211 245.623 362.986 245.414 362.681C245.206 362.376 245.101 361.993 245.101 361.533V354.001Z" fill="#A29EA2"/>
<g filter="url(#filter2_d_66_328)">
<rect x="4" y="260" width="250" height="50" rx="10" fill="#32F900" fill-opacity="0.18" shape-rendering="crispEdges"/>
</g>
<path d="M33.9176 297V279.545H36.5511V287.131H45.2528V279.545H47.8949V297H45.2528V289.389H36.5511V297H33.9176ZM54.3636 279.545V297H51.7301V279.545H54.3636ZM67.7188 284.131C67.6278 283.324 67.2528 282.699 66.5938 282.256C65.9347 281.807 65.1051 281.582 64.1051 281.582C63.3892 281.582 62.7699 281.696 62.2472 281.923C61.7244 282.145 61.3182 282.452 61.0284 282.844C60.7443 283.23 60.6023 283.67 60.6023 284.165C60.6023 284.58 60.6989 284.937 60.892 285.239C61.0909 285.54 61.3494 285.793 61.6676 285.997C61.9915 286.196 62.3381 286.364 62.7074 286.5C63.0767 286.631 63.4318 286.739 63.7727 286.824L65.4773 287.267C66.0341 287.403 66.6051 287.588 67.1903 287.821C67.7756 288.054 68.3182 288.361 68.8182 288.741C69.3182 289.122 69.7216 289.594 70.0284 290.156C70.3409 290.719 70.4972 291.392 70.4972 292.176C70.4972 293.165 70.2415 294.043 69.7301 294.81C69.2244 295.577 68.4886 296.182 67.5227 296.625C66.5625 297.068 65.4006 297.29 64.0369 297.29C62.7301 297.29 61.5994 297.082 60.6449 296.668C59.6903 296.253 58.9432 295.665 58.4034 294.903C57.8636 294.136 57.5653 293.227 57.5085 292.176H60.1506C60.2017 292.807 60.4063 293.332 60.7642 293.753C61.1278 294.168 61.5909 294.477 62.1534 294.682C62.7216 294.881 63.3438 294.98 64.0199 294.98C64.7642 294.98 65.4261 294.864 66.0057 294.631C66.5909 294.392 67.0511 294.062 67.3864 293.642C67.7216 293.216 67.8892 292.719 67.8892 292.151C67.8892 291.634 67.7415 291.21 67.446 290.881C67.1563 290.551 66.7614 290.278 66.2614 290.062C65.767 289.847 65.2074 289.656 64.5824 289.491L62.5199 288.929C61.1222 288.548 60.0142 287.989 59.196 287.25C58.3835 286.511 57.9773 285.534 57.9773 284.318C57.9773 283.312 58.25 282.435 58.7955 281.685C59.3409 280.935 60.0795 280.352 61.0114 279.938C61.9432 279.517 62.9943 279.307 64.1648 279.307C65.3466 279.307 66.3892 279.514 67.2926 279.929C68.2017 280.344 68.9176 280.915 69.4403 281.642C69.9631 282.364 70.2358 283.193 70.2585 284.131H67.7188ZM72.7834 281.812V279.545H86.2919V281.812H80.8459V297H78.2209V281.812H72.7834ZM95.3899 297V295.091L101.296 288.972C101.927 288.307 102.447 287.724 102.856 287.224C103.271 286.719 103.58 286.239 103.785 285.784C103.989 285.33 104.092 284.847 104.092 284.335C104.092 283.756 103.955 283.256 103.683 282.835C103.41 282.409 103.038 282.082 102.566 281.855C102.094 281.622 101.563 281.506 100.972 281.506C100.347 281.506 99.8018 281.634 99.3359 281.889C98.87 282.145 98.5121 282.506 98.2621 282.972C98.0121 283.437 97.8871 283.983 97.8871 284.608H95.3729C95.3729 283.545 95.6172 282.616 96.1058 281.821C96.5945 281.026 97.2649 280.409 98.1172 279.972C98.9695 279.528 99.9382 279.307 101.023 279.307C102.12 279.307 103.086 279.526 103.921 279.963C104.762 280.395 105.418 280.986 105.89 281.736C106.362 282.48 106.597 283.321 106.597 284.259C106.597 284.906 106.475 285.54 106.231 286.159C105.992 286.778 105.575 287.469 104.978 288.23C104.381 288.986 103.552 289.903 102.489 290.983L99.0206 294.614V294.741H106.879V297H95.3899ZM110.109 297V295.091L116.015 288.972C116.646 288.307 117.165 287.724 117.575 287.224C117.989 286.719 118.299 286.239 118.504 285.784C118.708 285.33 118.81 284.847 118.81 284.335C118.81 283.756 118.674 283.256 118.401 282.835C118.129 282.409 117.756 282.082 117.285 281.855C116.813 281.622 116.282 281.506 115.691 281.506C115.066 281.506 114.521 281.634 114.055 281.889C113.589 282.145 113.231 282.506 112.981 282.972C112.731 283.437 112.606 283.983 112.606 284.608H110.092C110.092 283.545 110.336 282.616 110.825 281.821C111.313 281.026 111.984 280.409 112.836 279.972C113.688 279.528 114.657 279.307 115.742 279.307C116.839 279.307 117.805 279.526 118.64 279.963C119.481 280.395 120.137 280.986 120.609 281.736C121.08 282.48 121.316 283.321 121.316 284.259C121.316 284.906 121.194 285.54 120.95 286.159C120.711 286.778 120.293 287.469 119.697 288.23C119.1 288.986 118.271 289.903 117.208 290.983L113.739 294.614V294.741H121.597V297H110.109ZM124.827 297V295.091L130.734 288.972C131.364 288.307 131.884 287.724 132.293 287.224C132.708 286.719 133.018 286.239 133.222 285.784C133.427 285.33 133.529 284.847 133.529 284.335C133.529 283.756 133.393 283.256 133.12 282.835C132.847 282.409 132.475 282.082 132.004 281.855C131.532 281.622 131.001 281.506 130.41 281.506C129.785 281.506 129.239 281.634 128.773 281.889C128.308 282.145 127.95 282.506 127.7 282.972C127.45 283.437 127.325 283.983 127.325 284.608H124.81C124.81 283.545 125.055 282.616 125.543 281.821C126.032 281.026 126.702 280.409 127.555 279.972C128.407 279.528 129.376 279.307 130.461 279.307C131.558 279.307 132.523 279.526 133.359 279.963C134.2 280.395 134.856 280.986 135.327 281.736C135.799 282.48 136.035 283.321 136.035 284.259C136.035 284.906 135.913 285.54 135.668 286.159C135.43 286.778 135.012 287.469 134.415 288.23C133.819 288.986 132.989 289.903 131.927 290.983L128.458 294.614V294.741H136.316V297H124.827Z" fill="black"/>
<path d="M199.524 308.139C198.841 308.139 198.232 308.022 197.695 307.786C197.161 307.551 196.738 307.224 196.427 306.807C196.119 306.386 195.953 305.899 195.93 305.345H197.491C197.511 305.647 197.612 305.909 197.794 306.131C197.98 306.349 198.222 306.518 198.52 306.638C198.818 306.757 199.15 306.817 199.514 306.817C199.915 306.817 200.27 306.747 200.578 306.608C200.89 306.469 201.133 306.275 201.309 306.026C201.485 305.774 201.572 305.484 201.572 305.156C201.572 304.815 201.485 304.515 201.309 304.256C201.137 303.995 200.883 303.789 200.548 303.64C200.217 303.491 199.816 303.416 199.345 303.416H198.485V302.163H199.345C199.723 302.163 200.054 302.095 200.339 301.96C200.628 301.824 200.853 301.635 201.016 301.393C201.178 301.147 201.259 300.861 201.259 300.533C201.259 300.218 201.188 299.944 201.045 299.712C200.906 299.477 200.707 299.293 200.449 299.161C200.194 299.028 199.892 298.962 199.544 298.962C199.213 298.962 198.903 299.023 198.614 299.146C198.329 299.265 198.097 299.437 197.918 299.663C197.739 299.885 197.643 300.152 197.63 300.463H196.143C196.16 299.913 196.322 299.429 196.631 299.011C196.942 298.594 197.353 298.267 197.864 298.032C198.374 297.797 198.941 297.679 199.564 297.679C200.217 297.679 200.78 297.807 201.254 298.062C201.732 298.314 202.099 298.65 202.358 299.071C202.62 299.492 202.749 299.953 202.746 300.453C202.749 301.023 202.59 301.507 202.268 301.905C201.95 302.303 201.526 302.569 200.996 302.705V302.785C201.672 302.888 202.196 303.156 202.567 303.59C202.941 304.024 203.127 304.563 203.124 305.206C203.127 305.766 202.971 306.268 202.656 306.712C202.345 307.156 201.919 307.506 201.379 307.761C200.838 308.013 200.22 308.139 199.524 308.139ZM217.304 301.129H215.753C215.693 300.798 215.582 300.506 215.42 300.254C215.257 300.002 215.058 299.789 214.823 299.613C214.588 299.437 214.324 299.305 214.032 299.215C213.744 299.126 213.438 299.081 213.113 299.081C212.526 299.081 212.001 299.228 211.537 299.523C211.076 299.818 210.711 300.251 210.443 300.821C210.178 301.391 210.045 302.087 210.045 302.909C210.045 303.738 210.178 304.437 210.443 305.007C210.711 305.577 211.078 306.008 211.542 306.3C212.006 306.591 212.528 306.737 213.108 306.737C213.429 306.737 213.734 306.694 214.023 306.608C214.314 306.518 214.578 306.388 214.813 306.215C215.048 306.043 215.247 305.832 215.41 305.584C215.575 305.332 215.69 305.044 215.753 304.719L217.304 304.724C217.221 305.224 217.06 305.685 216.822 306.106C216.586 306.523 216.283 306.885 215.912 307.19C215.544 307.491 215.123 307.725 214.649 307.891C214.175 308.056 213.658 308.139 213.098 308.139C212.216 308.139 211.431 307.93 210.741 307.513C210.052 307.092 209.508 306.49 209.111 305.708C208.716 304.926 208.519 303.993 208.519 302.909C208.519 301.822 208.718 300.889 209.116 300.11C209.513 299.328 210.057 298.728 210.746 298.31C211.436 297.889 212.22 297.679 213.098 297.679C213.638 297.679 214.142 297.757 214.609 297.913C215.08 298.065 215.502 298.29 215.877 298.589C216.251 298.884 216.561 299.245 216.807 299.673C217.052 300.097 217.218 300.582 217.304 301.129ZM219.023 308V300.364H220.46V301.577H220.539C220.678 301.166 220.924 300.843 221.275 300.607C221.629 300.369 222.031 300.249 222.478 300.249C222.571 300.249 222.68 300.253 222.806 300.259C222.935 300.266 223.036 300.274 223.109 300.284V301.706C223.05 301.689 222.944 301.671 222.791 301.651C222.639 301.628 222.486 301.616 222.334 301.616C221.982 301.616 221.669 301.691 221.394 301.84C221.122 301.986 220.907 302.19 220.748 302.452C220.589 302.71 220.509 303.005 220.509 303.337V308H219.023ZM227.414 308.154C226.661 308.154 226.013 307.993 225.47 307.672C224.929 307.347 224.512 306.891 224.217 306.305C223.925 305.715 223.779 305.024 223.779 304.232C223.779 303.449 223.925 302.76 224.217 302.163C224.512 301.567 224.923 301.101 225.45 300.766C225.98 300.432 226.6 300.264 227.309 300.264C227.74 300.264 228.158 300.335 228.562 300.478C228.966 300.621 229.329 300.844 229.651 301.149C229.972 301.454 230.226 301.85 230.411 302.337C230.597 302.821 230.69 303.41 230.69 304.102V304.629H224.619V303.516H229.233C229.233 303.125 229.154 302.778 228.994 302.477C228.835 302.172 228.612 301.931 228.323 301.756C228.038 301.58 227.704 301.492 227.319 301.492C226.901 301.492 226.537 301.595 226.225 301.8C225.917 302.003 225.678 302.268 225.509 302.596C225.344 302.921 225.261 303.274 225.261 303.655V304.525C225.261 305.035 225.35 305.469 225.529 305.827C225.712 306.185 225.965 306.459 226.29 306.648C226.615 306.833 226.994 306.926 227.428 306.926C227.71 306.926 227.967 306.886 228.199 306.807C228.431 306.724 228.632 306.601 228.801 306.439C228.97 306.277 229.099 306.076 229.188 305.837L230.595 306.091C230.483 306.505 230.28 306.868 229.989 307.18C229.7 307.488 229.338 307.728 228.9 307.901C228.466 308.07 227.97 308.154 227.414 308.154ZM235.198 308.149C234.581 308.149 234.031 307.992 233.547 307.677C233.067 307.359 232.689 306.906 232.414 306.32C232.142 305.73 232.006 305.022 232.006 304.197C232.006 303.371 232.144 302.665 232.419 302.079C232.697 301.492 233.078 301.043 233.562 300.732C234.046 300.42 234.595 300.264 235.208 300.264C235.682 300.264 236.063 300.344 236.351 300.503C236.643 300.659 236.868 300.841 237.027 301.05C237.19 301.259 237.316 301.442 237.405 301.602H237.495V297.818H238.981V308H237.529V306.812H237.405C237.316 306.974 237.186 307.16 237.017 307.369C236.852 307.577 236.623 307.76 236.331 307.915C236.04 308.071 235.662 308.149 235.198 308.149ZM235.526 306.881C235.953 306.881 236.315 306.769 236.61 306.543C236.908 306.315 237.133 305.998 237.286 305.594C237.442 305.189 237.52 304.719 237.52 304.182C237.52 303.652 237.443 303.187 237.291 302.79C237.138 302.392 236.915 302.082 236.62 301.86C236.325 301.638 235.96 301.527 235.526 301.527C235.078 301.527 234.706 301.643 234.407 301.875C234.109 302.107 233.884 302.424 233.731 302.825C233.582 303.226 233.507 303.678 233.507 304.182C233.507 304.692 233.584 305.151 233.736 305.559C233.889 305.967 234.114 306.29 234.412 306.528C234.714 306.764 235.085 306.881 235.526 306.881ZM241.103 308V300.364H242.589V308H241.103ZM241.854 299.185C241.595 299.185 241.373 299.099 241.187 298.927C241.005 298.751 240.914 298.542 240.914 298.3C240.914 298.055 241.005 297.846 241.187 297.674C241.373 297.498 241.595 297.411 241.854 297.411C242.112 297.411 242.332 297.498 242.515 297.674C242.7 297.846 242.793 298.055 242.793 298.3C242.793 298.542 242.7 298.751 242.515 298.927C242.332 299.099 242.112 299.185 241.854 299.185ZM248.154 300.364V301.557H243.983V300.364H248.154ZM245.101 298.534H246.588V305.758C246.588 306.046 246.631 306.263 246.717 306.409C246.803 306.552 246.914 306.649 247.05 306.702C247.189 306.752 247.34 306.777 247.502 306.777C247.622 306.777 247.726 306.769 247.816 306.752C247.905 306.736 247.975 306.722 248.025 306.712L248.293 307.94C248.207 307.973 248.084 308.007 247.925 308.04C247.766 308.076 247.567 308.096 247.328 308.099C246.937 308.106 246.573 308.036 246.235 307.891C245.897 307.745 245.623 307.519 245.414 307.214C245.206 306.91 245.101 306.527 245.101 306.066V298.534Z" fill="#A29EA2"/>
<g filter="url(#filter3_d_66_328)">
<rect x="4" y="201" width="249" height="50" rx="10" fill="#32F900" fill-opacity="0.18" shape-rendering="crispEdges"/>
</g>
<path d="M45.7301 223.949C45.5653 223.432 45.3438 222.968 45.0653 222.559C44.7926 222.145 44.4659 221.792 44.0852 221.503C43.7045 221.207 43.2699 220.983 42.7812 220.829C42.2983 220.676 41.767 220.599 41.1875 220.599C40.2045 220.599 39.3182 220.852 38.5284 221.358C37.7386 221.863 37.1136 222.605 36.6534 223.582C36.1989 224.554 35.9716 225.744 35.9716 227.153C35.9716 228.568 36.2017 229.764 36.6619 230.741C37.1222 231.718 37.7528 232.46 38.554 232.966C39.3551 233.471 40.267 233.724 41.2898 233.724C42.2386 233.724 43.0653 233.531 43.7699 233.145C44.4801 232.758 45.0284 232.213 45.4148 231.508C45.8068 230.798 46.0028 229.963 46.0028 229.003L46.6847 229.13H41.6903V226.957H48.5511V228.943C48.5511 230.409 48.2386 231.682 47.6136 232.761C46.9943 233.835 46.1364 234.664 45.0398 235.25C43.9489 235.835 42.6989 236.128 41.2898 236.128C39.7102 236.128 38.3239 235.764 37.1307 235.037C35.9432 234.309 35.017 233.278 34.3523 231.943C33.6875 230.602 33.3551 229.011 33.3551 227.17C33.3551 225.778 33.5483 224.528 33.9347 223.42C34.321 222.312 34.8636 221.372 35.5625 220.599C36.267 219.821 37.0938 219.227 38.0426 218.818C38.9972 218.403 40.0398 218.196 41.1705 218.196C42.1136 218.196 42.9915 218.335 43.804 218.613C44.6222 218.892 45.3494 219.287 45.9858 219.798C46.6278 220.309 47.1591 220.917 47.5795 221.622C48 222.321 48.2841 223.096 48.4318 223.949H45.7301ZM51.8942 235.889V218.434H62.8374V220.701H54.5277V226.02H62.2663V228.278H54.5277V233.622H62.9396V235.889H51.8942ZM81.517 227.162C81.517 229.025 81.1761 230.628 80.4943 231.968C79.8125 233.304 78.8778 234.332 77.6903 235.054C76.5085 235.77 75.1648 236.128 73.6591 236.128C72.1477 236.128 70.7983 235.77 69.6108 235.054C68.429 234.332 67.4972 233.301 66.8153 231.96C66.1335 230.619 65.7926 229.02 65.7926 227.162C65.7926 225.298 66.1335 223.699 66.8153 222.363C67.4972 221.022 68.429 219.994 69.6108 219.278C70.7983 218.557 72.1477 218.196 73.6591 218.196C75.1648 218.196 76.5085 218.557 77.6903 219.278C78.8778 219.994 79.8125 221.022 80.4943 222.363C81.1761 223.699 81.517 225.298 81.517 227.162ZM78.9091 227.162C78.9091 225.741 78.679 224.545 78.2188 223.574C77.7642 222.596 77.1392 221.858 76.3438 221.358C75.554 220.852 74.6591 220.599 73.6591 220.599C72.6534 220.599 71.7557 220.852 70.9659 221.358C70.1761 221.858 69.5511 222.596 69.0909 223.574C68.6364 224.545 68.4091 225.741 68.4091 227.162C68.4091 228.582 68.6364 229.781 69.0909 230.758C69.5511 231.73 70.1761 232.468 70.9659 232.974C71.7557 233.474 72.6534 233.724 73.6591 233.724C74.6591 233.724 75.554 233.474 76.3438 232.974C77.1392 232.468 77.7642 231.73 78.2188 230.758C78.679 229.781 78.9091 228.582 78.9091 227.162ZM84.8004 235.889V218.434H87.4339V233.622H95.343V235.889H84.8004ZM111.082 218.434V235.889H108.44V221.076H108.338L104.162 223.804V221.281L108.517 218.434H111.082ZM121.881 236.179C120.534 236.173 119.384 235.818 118.429 235.113C117.474 234.409 116.744 233.383 116.239 232.037C115.733 230.69 115.48 229.068 115.48 227.17C115.48 225.278 115.733 223.662 116.239 222.321C116.75 220.98 117.483 219.957 118.438 219.253C119.398 218.548 120.545 218.196 121.881 218.196C123.216 218.196 124.361 218.551 125.315 219.261C126.27 219.966 127 220.988 127.506 222.329C128.017 223.664 128.273 225.278 128.273 227.17C128.273 229.074 128.02 230.699 127.514 232.045C127.009 233.386 126.278 234.412 125.324 235.122C124.369 235.826 123.222 236.179 121.881 236.179ZM121.881 233.903C123.063 233.903 123.986 233.326 124.651 232.173C125.321 231.02 125.656 229.352 125.656 227.17C125.656 225.721 125.503 224.497 125.196 223.497C124.895 222.491 124.46 221.73 123.892 221.213C123.33 220.69 122.659 220.429 121.881 220.429C120.705 220.429 119.781 221.008 119.111 222.167C118.44 223.326 118.102 224.994 118.097 227.17C118.097 228.625 118.247 229.855 118.548 230.861C118.855 231.861 119.29 232.619 119.852 233.136C120.415 233.647 121.091 233.903 121.881 233.903ZM137.918 218.434V235.889H135.276V221.076H135.174L130.998 223.804V221.281L135.353 218.434H137.918Z" fill="black"/>
<path d="M194.524 247.169C193.841 247.169 193.232 247.052 192.695 246.816C192.161 246.581 191.738 246.254 191.427 245.837C191.119 245.416 190.953 244.929 190.93 244.375H192.491C192.511 244.677 192.612 244.939 192.794 245.161C192.98 245.379 193.222 245.548 193.52 245.668C193.818 245.787 194.15 245.847 194.514 245.847C194.915 245.847 195.27 245.777 195.578 245.638C195.89 245.499 196.133 245.305 196.309 245.056C196.485 244.804 196.572 244.514 196.572 244.186C196.572 243.845 196.485 243.545 196.309 243.286C196.137 243.025 195.883 242.819 195.548 242.67C195.217 242.521 194.816 242.446 194.345 242.446H193.485V241.193H194.345C194.723 241.193 195.054 241.125 195.339 240.99C195.628 240.854 195.853 240.665 196.016 240.423C196.178 240.178 196.259 239.891 196.259 239.563C196.259 239.248 196.188 238.974 196.045 238.742C195.906 238.507 195.707 238.323 195.449 238.191C195.194 238.058 194.892 237.992 194.544 237.992C194.213 237.992 193.903 238.053 193.614 238.176C193.329 238.295 193.097 238.467 192.918 238.693C192.739 238.915 192.643 239.182 192.63 239.493H191.143C191.16 238.943 191.322 238.459 191.631 238.041C191.942 237.624 192.353 237.297 192.864 237.062C193.374 236.827 193.941 236.709 194.564 236.709C195.217 236.709 195.78 236.837 196.254 237.092C196.732 237.344 197.099 237.68 197.358 238.101C197.62 238.522 197.749 238.983 197.746 239.483C197.749 240.053 197.59 240.537 197.268 240.935C196.95 241.333 196.526 241.599 195.996 241.735V241.815C196.672 241.918 197.196 242.186 197.567 242.62C197.941 243.054 198.127 243.593 198.124 244.236C198.127 244.796 197.971 245.298 197.656 245.742C197.345 246.187 196.919 246.536 196.379 246.791C195.838 247.043 195.22 247.169 194.524 247.169ZM212.304 240.159H210.753C210.693 239.828 210.582 239.536 210.42 239.284C210.257 239.032 210.058 238.819 209.823 238.643C209.588 238.467 209.324 238.335 209.032 238.245C208.744 238.156 208.438 238.111 208.113 238.111C207.526 238.111 207.001 238.258 206.537 238.553C206.076 238.848 205.711 239.281 205.443 239.851C205.178 240.421 205.045 241.117 205.045 241.939C205.045 242.768 205.178 243.467 205.443 244.037C205.711 244.607 206.078 245.038 206.542 245.33C207.006 245.621 207.528 245.767 208.108 245.767C208.429 245.767 208.734 245.724 209.023 245.638C209.314 245.548 209.578 245.418 209.813 245.245C210.048 245.073 210.247 244.862 210.41 244.614C210.575 244.362 210.69 244.074 210.753 243.749L212.304 243.754C212.221 244.254 212.06 244.715 211.822 245.136C211.586 245.553 211.283 245.915 210.912 246.22C210.544 246.521 210.123 246.755 209.649 246.921C209.175 247.086 208.658 247.169 208.098 247.169C207.216 247.169 206.431 246.96 205.741 246.543C205.052 246.122 204.508 245.52 204.111 244.738C203.716 243.956 203.519 243.023 203.519 241.939C203.519 240.852 203.718 239.919 204.116 239.14C204.513 238.358 205.057 237.758 205.746 237.34C206.436 236.919 207.22 236.709 208.098 236.709C208.638 236.709 209.142 236.787 209.609 236.943C210.08 237.095 210.502 237.321 210.877 237.619C211.251 237.914 211.561 238.275 211.807 238.703C212.052 239.127 212.218 239.612 212.304 240.159ZM214.023 247.03V239.394H215.46V240.607H215.539C215.678 240.196 215.924 239.873 216.275 239.637C216.629 239.399 217.031 239.279 217.478 239.279C217.571 239.279 217.68 239.283 217.806 239.289C217.935 239.296 218.036 239.304 218.109 239.314V240.736C218.05 240.719 217.944 240.701 217.791 240.681C217.639 240.658 217.486 240.647 217.334 240.647C216.982 240.647 216.669 240.721 216.394 240.87C216.122 241.016 215.907 241.22 215.748 241.482C215.589 241.74 215.509 242.035 215.509 242.367V247.03H214.023ZM222.414 247.184C221.661 247.184 221.013 247.023 220.47 246.702C219.929 246.377 219.512 245.921 219.217 245.335C218.925 244.745 218.779 244.054 218.779 243.262C218.779 242.479 218.925 241.79 219.217 241.193C219.512 240.597 219.923 240.131 220.45 239.796C220.98 239.462 221.6 239.294 222.309 239.294C222.74 239.294 223.158 239.365 223.562 239.508C223.966 239.651 224.329 239.874 224.651 240.179C224.972 240.484 225.226 240.88 225.411 241.367C225.597 241.851 225.69 242.44 225.69 243.132V243.659H219.619V242.546H224.233C224.233 242.155 224.154 241.808 223.994 241.507C223.835 241.202 223.612 240.961 223.323 240.786C223.038 240.61 222.704 240.522 222.319 240.522C221.901 240.522 221.537 240.625 221.225 240.83C220.917 241.033 220.678 241.298 220.509 241.626C220.344 241.951 220.261 242.304 220.261 242.685V243.555C220.261 244.065 220.35 244.499 220.529 244.857C220.712 245.215 220.965 245.489 221.29 245.678C221.615 245.863 221.994 245.956 222.428 245.956C222.71 245.956 222.967 245.916 223.199 245.837C223.431 245.754 223.632 245.631 223.801 245.469C223.97 245.307 224.099 245.106 224.188 244.867L225.595 245.121C225.483 245.535 225.28 245.898 224.989 246.21C224.7 246.518 224.338 246.758 223.9 246.931C223.466 247.1 222.97 247.184 222.414 247.184ZM230.198 247.179C229.581 247.179 229.031 247.022 228.547 246.707C228.067 246.389 227.689 245.936 227.414 245.35C227.142 244.76 227.006 244.052 227.006 243.227C227.006 242.401 227.144 241.696 227.419 241.109C227.697 240.522 228.078 240.073 228.562 239.762C229.046 239.45 229.595 239.294 230.208 239.294C230.682 239.294 231.063 239.374 231.351 239.533C231.643 239.689 231.868 239.871 232.027 240.08C232.19 240.289 232.316 240.473 232.405 240.632H232.495V236.848H233.981V247.03H232.529V245.842H232.405C232.316 246.004 232.186 246.19 232.017 246.399C231.852 246.607 231.623 246.79 231.331 246.946C231.04 247.101 230.662 247.179 230.198 247.179ZM230.526 245.911C230.953 245.911 231.315 245.799 231.61 245.573C231.908 245.345 232.133 245.028 232.286 244.624C232.442 244.219 232.52 243.749 232.52 243.212C232.52 242.682 232.443 242.218 232.291 241.82C232.138 241.422 231.915 241.112 231.62 240.89C231.325 240.668 230.96 240.557 230.526 240.557C230.078 240.557 229.706 240.673 229.407 240.905C229.109 241.137 228.884 241.454 228.731 241.855C228.582 242.256 228.507 242.708 228.507 243.212C228.507 243.722 228.584 244.181 228.736 244.589C228.889 244.997 229.114 245.32 229.412 245.558C229.714 245.794 230.085 245.911 230.526 245.911ZM236.103 247.03V239.394H237.589V247.03H236.103ZM236.854 238.215C236.595 238.215 236.373 238.129 236.187 237.957C236.005 237.781 235.914 237.572 235.914 237.33C235.914 237.085 236.005 236.876 236.187 236.704C236.373 236.528 236.595 236.441 236.854 236.441C237.112 236.441 237.332 236.528 237.515 236.704C237.7 236.876 237.793 237.085 237.793 237.33C237.793 237.572 237.7 237.781 237.515 237.957C237.332 238.129 237.112 238.215 236.854 238.215ZM243.154 239.394V240.587H238.983V239.394H243.154ZM240.101 237.564H241.588V244.788C241.588 245.076 241.631 245.293 241.717 245.439C241.803 245.582 241.914 245.679 242.05 245.732C242.189 245.782 242.34 245.807 242.502 245.807C242.622 245.807 242.726 245.799 242.816 245.782C242.905 245.766 242.975 245.752 243.025 245.742L243.293 246.97C243.207 247.004 243.084 247.037 242.925 247.07C242.766 247.106 242.567 247.126 242.328 247.129C241.937 247.136 241.573 247.066 241.235 246.921C240.897 246.775 240.623 246.549 240.414 246.245C240.206 245.94 240.101 245.557 240.101 245.096V237.564Z" fill="#A29EA2"/>
<g filter="url(#filter4_d_66_328)">
<rect x="4" y="141" width="249" height="50" rx="10" fill="#32F900" fill-opacity="0.18" shape-rendering="crispEdges"/>
</g>
<path d="M33.9176 177.84V160.385H44.8608V162.653H36.5511V167.971H44.2898V170.229H36.5511V175.573H44.9631V177.84H33.9176ZM62.4666 160.385V177.84H60.0462L51.174 165.039H51.0121V177.84H48.3786V160.385H50.8161L59.6967 173.204H59.8587V160.385H62.4666ZM78.1207 165.9C77.956 165.383 77.7344 164.92 77.456 164.51C77.1832 164.096 76.8565 163.743 76.4759 163.454C76.0952 163.158 75.6605 162.934 75.1719 162.78C74.6889 162.627 74.1577 162.55 73.5781 162.55C72.5952 162.55 71.7088 162.803 70.919 163.309C70.1293 163.814 69.5043 164.556 69.044 165.533C68.5895 166.505 68.3622 167.695 68.3622 169.104C68.3622 170.519 68.5923 171.715 69.0526 172.692C69.5128 173.67 70.1435 174.411 70.9446 174.917C71.7457 175.422 72.6577 175.675 73.6804 175.675C74.6293 175.675 75.456 175.482 76.1605 175.096C76.8707 174.709 77.419 174.164 77.8054 173.459C78.1974 172.749 78.3935 171.914 78.3935 170.954L79.0753 171.082H74.081V168.908H80.9418V170.894C80.9418 172.36 80.6293 173.633 80.0043 174.712C79.3849 175.786 78.527 176.616 77.4304 177.201C76.3395 177.786 75.0895 178.079 73.6804 178.079C72.1009 178.079 70.7145 177.715 69.5213 176.988C68.3338 176.26 67.4077 175.229 66.7429 173.894C66.0781 172.553 65.7457 170.962 65.7457 169.121C65.7457 167.729 65.9389 166.479 66.3253 165.371C66.7116 164.263 67.2543 163.323 67.9531 162.55C68.6577 161.772 69.4844 161.178 70.4332 160.769C71.3878 160.354 72.4304 160.147 73.5611 160.147C74.5043 160.147 75.3821 160.286 76.1946 160.564C77.0128 160.843 77.7401 161.238 78.3764 161.749C79.0185 162.26 79.5497 162.868 79.9702 163.573C80.3906 164.272 80.6747 165.047 80.8224 165.9H78.1207ZM97.0199 160.385V177.84H94.3778V163.028H94.2756L90.0994 165.755V163.232L94.4545 160.385H97.0199ZM107.503 178.079C106.435 178.079 105.474 177.874 104.622 177.465C103.776 177.05 103.099 176.482 102.594 175.76C102.088 175.039 101.818 174.215 101.784 173.289H104.341C104.403 174.039 104.736 174.655 105.338 175.138C105.94 175.621 106.662 175.863 107.503 175.863C108.173 175.863 108.767 175.709 109.284 175.403C109.807 175.09 110.216 174.661 110.511 174.116C110.813 173.57 110.963 172.948 110.963 172.249C110.963 171.539 110.81 170.905 110.503 170.349C110.196 169.792 109.773 169.354 109.233 169.036C108.699 168.718 108.085 168.556 107.392 168.55C106.864 168.55 106.332 168.641 105.798 168.823C105.264 169.005 104.832 169.243 104.503 169.539L102.091 169.181L103.071 160.385H112.668V162.644H105.261L104.707 167.528H104.81C105.151 167.198 105.602 166.922 106.165 166.701C106.733 166.479 107.341 166.368 107.989 166.368C109.051 166.368 109.997 166.621 110.827 167.127C111.662 167.633 112.318 168.323 112.795 169.198C113.278 170.067 113.517 171.067 113.511 172.198C113.517 173.329 113.261 174.337 112.744 175.224C112.233 176.11 111.523 176.809 110.614 177.32C109.71 177.826 108.673 178.079 107.503 178.079ZM122.701 178.13C121.354 178.124 120.204 177.769 119.249 177.064C118.295 176.36 117.565 175.334 117.059 173.988C116.553 172.641 116.3 171.019 116.3 169.121C116.3 167.229 116.553 165.613 117.059 164.272C117.57 162.931 118.303 161.908 119.258 161.204C120.218 160.499 121.366 160.147 122.701 160.147C124.036 160.147 125.181 160.502 126.136 161.212C127.09 161.917 127.82 162.939 128.326 164.28C128.837 165.616 129.093 167.229 129.093 169.121C129.093 171.025 128.84 172.65 128.335 173.996C127.829 175.337 127.099 176.363 126.144 177.073C125.19 177.778 124.042 178.13 122.701 178.13ZM122.701 175.854C123.883 175.854 124.806 175.278 125.471 174.124C126.141 172.971 126.477 171.303 126.477 169.121C126.477 167.672 126.323 166.448 126.016 165.448C125.715 164.442 125.281 163.681 124.712 163.164C124.15 162.641 123.479 162.38 122.701 162.38C121.525 162.38 120.602 162.959 119.931 164.118C119.261 165.278 118.923 166.945 118.917 169.121C118.917 170.576 119.067 171.806 119.369 172.812C119.675 173.812 120.11 174.57 120.673 175.087C121.235 175.599 121.911 175.854 122.701 175.854Z" fill="black"/>
<path d="M198.524 187.359C197.841 187.359 197.232 187.242 196.695 187.006C196.161 186.771 195.738 186.444 195.427 186.027C195.119 185.606 194.953 185.119 194.93 184.565H196.491C196.511 184.867 196.612 185.129 196.794 185.351C196.98 185.569 197.222 185.738 197.52 185.858C197.818 185.977 198.15 186.037 198.514 186.037C198.915 186.037 199.27 185.967 199.578 185.828C199.89 185.689 200.133 185.495 200.309 185.246C200.485 184.994 200.572 184.704 200.572 184.376C200.572 184.035 200.485 183.735 200.309 183.476C200.137 183.215 199.883 183.009 199.548 182.86C199.217 182.711 198.816 182.636 198.345 182.636H197.485V181.383H198.345C198.723 181.383 199.054 181.315 199.339 181.18C199.628 181.044 199.853 180.855 200.016 180.613C200.178 180.368 200.259 180.081 200.259 179.753C200.259 179.438 200.188 179.164 200.045 178.932C199.906 178.697 199.707 178.513 199.449 178.381C199.194 178.248 198.892 178.182 198.544 178.182C198.213 178.182 197.903 178.243 197.614 178.366C197.329 178.485 197.097 178.657 196.918 178.883C196.739 179.105 196.643 179.372 196.63 179.683H195.143C195.16 179.133 195.322 178.649 195.631 178.231C195.942 177.814 196.353 177.487 196.864 177.252C197.374 177.017 197.941 176.899 198.564 176.899C199.217 176.899 199.78 177.027 200.254 177.282C200.732 177.534 201.099 177.87 201.358 178.291C201.62 178.712 201.749 179.173 201.746 179.673C201.749 180.243 201.59 180.727 201.268 181.125C200.95 181.523 200.526 181.789 199.996 181.925V182.005C200.672 182.108 201.196 182.376 201.567 182.81C201.941 183.244 202.127 183.783 202.124 184.426C202.127 184.986 201.971 185.488 201.656 185.932C201.345 186.377 200.919 186.726 200.379 186.981C199.838 187.233 199.22 187.359 198.524 187.359ZM216.304 180.349H214.753C214.693 180.018 214.582 179.726 214.42 179.474C214.257 179.222 214.058 179.009 213.823 178.833C213.588 178.657 213.324 178.525 213.032 178.435C212.744 178.346 212.438 178.301 212.113 178.301C211.526 178.301 211.001 178.448 210.537 178.743C210.076 179.038 209.711 179.471 209.443 180.041C209.178 180.611 209.045 181.307 209.045 182.129C209.045 182.958 209.178 183.657 209.443 184.227C209.711 184.797 210.078 185.228 210.542 185.52C211.006 185.811 211.528 185.957 212.108 185.957C212.429 185.957 212.734 185.914 213.023 185.828C213.314 185.738 213.578 185.608 213.813 185.435C214.048 185.263 214.247 185.052 214.41 184.804C214.575 184.552 214.69 184.264 214.753 183.939L216.304 183.944C216.221 184.444 216.06 184.905 215.822 185.326C215.586 185.743 215.283 186.105 214.912 186.41C214.544 186.711 214.123 186.945 213.649 187.111C213.175 187.276 212.658 187.359 212.098 187.359C211.216 187.359 210.431 187.15 209.741 186.733C209.052 186.312 208.508 185.71 208.111 184.928C207.716 184.146 207.519 183.213 207.519 182.129C207.519 181.042 207.718 180.109 208.116 179.33C208.513 178.548 209.057 177.948 209.746 177.53C210.436 177.109 211.22 176.899 212.098 176.899C212.638 176.899 213.142 176.977 213.609 177.133C214.08 177.285 214.502 177.511 214.877 177.809C215.251 178.104 215.561 178.465 215.807 178.893C216.052 179.317 216.218 179.802 216.304 180.349ZM218.023 187.22V179.584H219.46V180.797H219.539C219.678 180.386 219.924 180.063 220.275 179.827C220.629 179.589 221.031 179.469 221.478 179.469C221.571 179.469 221.68 179.473 221.806 179.479C221.935 179.486 222.036 179.494 222.109 179.504V180.926C222.05 180.909 221.944 180.891 221.791 180.871C221.639 180.848 221.486 180.837 221.334 180.837C220.982 180.837 220.669 180.911 220.394 181.06C220.122 181.206 219.907 181.41 219.748 181.672C219.589 181.93 219.509 182.225 219.509 182.557V187.22H218.023ZM226.414 187.374C225.661 187.374 225.013 187.213 224.47 186.892C223.929 186.567 223.512 186.111 223.217 185.525C222.925 184.935 222.779 184.244 222.779 183.452C222.779 182.669 222.925 181.98 223.217 181.383C223.512 180.787 223.923 180.321 224.45 179.986C224.98 179.652 225.6 179.484 226.309 179.484C226.74 179.484 227.158 179.555 227.562 179.698C227.966 179.841 228.329 180.064 228.651 180.369C228.972 180.674 229.226 181.07 229.411 181.557C229.597 182.041 229.69 182.63 229.69 183.322V183.849H223.619V182.736H228.233C228.233 182.345 228.154 181.998 227.994 181.697C227.835 181.392 227.612 181.151 227.323 180.976C227.038 180.8 226.704 180.712 226.319 180.712C225.901 180.712 225.537 180.815 225.225 181.02C224.917 181.223 224.678 181.488 224.509 181.816C224.344 182.141 224.261 182.494 224.261 182.875V183.745C224.261 184.255 224.35 184.689 224.529 185.047C224.712 185.405 224.965 185.679 225.29 185.868C225.615 186.053 225.994 186.146 226.428 186.146C226.71 186.146 226.967 186.106 227.199 186.027C227.431 185.944 227.632 185.821 227.801 185.659C227.97 185.497 228.099 185.296 228.188 185.057L229.595 185.311C229.483 185.725 229.28 186.088 228.989 186.4C228.7 186.708 228.338 186.948 227.9 187.121C227.466 187.29 226.97 187.374 226.414 187.374ZM234.198 187.369C233.581 187.369 233.031 187.212 232.547 186.897C232.067 186.579 231.689 186.126 231.414 185.54C231.142 184.95 231.006 184.242 231.006 183.417C231.006 182.591 231.144 181.886 231.419 181.299C231.697 180.712 232.078 180.263 232.562 179.952C233.046 179.64 233.595 179.484 234.208 179.484C234.682 179.484 235.063 179.564 235.351 179.723C235.643 179.879 235.868 180.061 236.027 180.27C236.19 180.479 236.316 180.663 236.405 180.822H236.495V177.038H237.981V187.22H236.529V186.032H236.405C236.316 186.194 236.186 186.38 236.017 186.589C235.852 186.797 235.623 186.98 235.331 187.136C235.04 187.291 234.662 187.369 234.198 187.369ZM234.526 186.101C234.953 186.101 235.315 185.989 235.61 185.763C235.908 185.535 236.133 185.218 236.286 184.814C236.442 184.409 236.52 183.939 236.52 183.402C236.52 182.872 236.443 182.408 236.291 182.01C236.138 181.612 235.915 181.302 235.62 181.08C235.325 180.858 234.96 180.747 234.526 180.747C234.078 180.747 233.706 180.863 233.407 181.095C233.109 181.327 232.884 181.644 232.731 182.045C232.582 182.446 232.507 182.898 232.507 183.402C232.507 183.912 232.584 184.371 232.736 184.779C232.889 185.187 233.114 185.51 233.412 185.748C233.714 185.984 234.085 186.101 234.526 186.101ZM240.103 187.22V179.584H241.589V187.22H240.103ZM240.854 178.405C240.595 178.405 240.373 178.319 240.187 178.147C240.005 177.971 239.914 177.762 239.914 177.52C239.914 177.275 240.005 177.066 240.187 176.894C240.373 176.718 240.595 176.631 240.854 176.631C241.112 176.631 241.332 176.718 241.515 176.894C241.7 177.066 241.793 177.275 241.793 177.52C241.793 177.762 241.7 177.971 241.515 178.147C241.332 178.319 241.112 178.405 240.854 178.405ZM247.154 179.584V180.777H242.983V179.584H247.154ZM244.101 177.754H245.588V184.978C245.588 185.266 245.631 185.483 245.717 185.629C245.803 185.772 245.914 185.869 246.05 185.922C246.189 185.972 246.34 185.997 246.502 185.997C246.622 185.997 246.726 185.989 246.816 185.972C246.905 185.956 246.975 185.942 247.025 185.932L247.293 187.16C247.207 187.194 247.084 187.227 246.925 187.26C246.766 187.296 246.567 187.316 246.328 187.319C245.937 187.326 245.573 187.256 245.235 187.111C244.897 186.965 244.623 186.739 244.414 186.435C244.206 186.13 244.101 185.747 244.101 185.286V177.754Z" fill="#A29EA2"/>
<g filter="url(#filter5_d_66_328)">
<rect x="4" y="82" width="249" height="50" rx="10" fill="#32F900" fill-opacity="0.18" shape-rendering="crispEdges"/>
</g>
<path d="M33.9176 101.045H37.1136L42.6705 114.614H42.875L48.4318 101.045H51.6278V118.5H49.1222V105.869H48.9602L43.8125 118.474H41.733L36.5852 105.861H36.4233V118.5H33.9176V101.045ZM56.9311 118.5H54.1357L60.4169 101.045H63.4595L69.7408 118.5H66.9453L62.0107 104.216H61.8743L56.9311 118.5ZM57.3999 111.665H66.468V113.881H57.3999V111.665ZM69.3381 103.312V101.045H82.8466V103.312H77.4006V118.5H74.7756V103.312H69.3381ZM85.8317 118.5V101.045H88.4652V108.631H97.1669V101.045H99.8089V118.5H97.1669V110.889H88.4652V118.5H85.8317ZM116.379 101.045V118.5H113.737V103.688H113.635L109.459 106.415V103.892L113.814 101.045H116.379ZM127.178 118.79C125.831 118.784 124.68 118.429 123.726 117.724C122.771 117.02 122.041 115.994 121.536 114.648C121.03 113.301 120.777 111.679 120.777 109.781C120.777 107.889 121.03 106.273 121.536 104.932C122.047 103.591 122.78 102.568 123.734 101.864C124.695 101.159 125.842 100.807 127.178 100.807C128.513 100.807 129.658 101.162 130.612 101.872C131.567 102.577 132.297 103.599 132.803 104.94C133.314 106.276 133.57 107.889 133.57 109.781C133.57 111.685 133.317 113.31 132.811 114.656C132.305 115.997 131.575 117.023 130.621 117.733C129.666 118.438 128.518 118.79 127.178 118.79ZM127.178 116.514C128.359 116.514 129.283 115.938 129.947 114.784C130.618 113.631 130.953 111.963 130.953 109.781C130.953 108.332 130.8 107.108 130.493 106.108C130.192 105.102 129.757 104.341 129.189 103.824C128.626 103.301 127.956 103.04 127.178 103.04C126.001 103.04 125.078 103.619 124.408 104.778C123.737 105.937 123.399 107.605 123.393 109.781C123.393 111.236 123.544 112.466 123.845 113.472C124.152 114.472 124.587 115.23 125.149 115.747C125.712 116.259 126.388 116.514 127.178 116.514ZM136.227 115.091V112.96L143.769 101.045H145.448V104.182H144.383L138.988 112.722V112.858H149.326V115.091H136.227ZM144.502 118.5V114.443L144.519 113.472V101.045H147.016V118.5H144.502Z" fill="black"/>
<path d="M195.524 128.139C194.841 128.139 194.232 128.022 193.695 127.786C193.161 127.551 192.738 127.224 192.427 126.807C192.119 126.386 191.953 125.899 191.93 125.345H193.491C193.511 125.647 193.612 125.909 193.794 126.131C193.98 126.349 194.222 126.518 194.52 126.638C194.818 126.757 195.15 126.817 195.514 126.817C195.915 126.817 196.27 126.747 196.578 126.608C196.89 126.469 197.133 126.275 197.309 126.026C197.485 125.774 197.572 125.484 197.572 125.156C197.572 124.815 197.485 124.515 197.309 124.256C197.137 123.995 196.883 123.789 196.548 123.64C196.217 123.491 195.816 123.416 195.345 123.416H194.485V122.163H195.345C195.723 122.163 196.054 122.095 196.339 121.96C196.628 121.824 196.853 121.635 197.016 121.393C197.178 121.147 197.259 120.861 197.259 120.533C197.259 120.218 197.188 119.944 197.045 119.712C196.906 119.477 196.707 119.293 196.449 119.161C196.194 119.028 195.892 118.962 195.544 118.962C195.213 118.962 194.903 119.023 194.614 119.146C194.329 119.265 194.097 119.437 193.918 119.663C193.739 119.885 193.643 120.152 193.63 120.463H192.143C192.16 119.913 192.322 119.429 192.631 119.011C192.942 118.594 193.353 118.267 193.864 118.032C194.374 117.797 194.941 117.679 195.564 117.679C196.217 117.679 196.78 117.807 197.254 118.062C197.732 118.314 198.099 118.65 198.358 119.071C198.62 119.492 198.749 119.953 198.746 120.453C198.749 121.023 198.59 121.507 198.268 121.905C197.95 122.303 197.526 122.569 196.996 122.705V122.785C197.672 122.888 198.196 123.156 198.567 123.59C198.941 124.024 199.127 124.563 199.124 125.206C199.127 125.766 198.971 126.268 198.656 126.712C198.345 127.156 197.919 127.506 197.379 127.761C196.838 128.013 196.22 128.139 195.524 128.139ZM213.304 121.129H211.753C211.693 120.798 211.582 120.506 211.42 120.254C211.257 120.002 211.058 119.789 210.823 119.613C210.588 119.437 210.324 119.305 210.032 119.215C209.744 119.126 209.438 119.081 209.113 119.081C208.526 119.081 208.001 119.228 207.537 119.523C207.076 119.818 206.711 120.251 206.443 120.821C206.178 121.391 206.045 122.087 206.045 122.909C206.045 123.738 206.178 124.437 206.443 125.007C206.711 125.577 207.078 126.008 207.542 126.3C208.006 126.591 208.528 126.737 209.108 126.737C209.429 126.737 209.734 126.694 210.023 126.608C210.314 126.518 210.578 126.388 210.813 126.215C211.048 126.043 211.247 125.832 211.41 125.584C211.575 125.332 211.69 125.044 211.753 124.719L213.304 124.724C213.221 125.224 213.06 125.685 212.822 126.106C212.586 126.523 212.283 126.885 211.912 127.19C211.544 127.491 211.123 127.725 210.649 127.891C210.175 128.056 209.658 128.139 209.098 128.139C208.216 128.139 207.431 127.93 206.741 127.513C206.052 127.092 205.508 126.49 205.111 125.708C204.716 124.926 204.519 123.993 204.519 122.909C204.519 121.822 204.718 120.889 205.116 120.11C205.513 119.328 206.057 118.728 206.746 118.31C207.436 117.889 208.22 117.679 209.098 117.679C209.638 117.679 210.142 117.757 210.609 117.913C211.08 118.065 211.502 118.29 211.877 118.589C212.251 118.884 212.561 119.245 212.807 119.673C213.052 120.097 213.218 120.582 213.304 121.129ZM215.023 128V120.364H216.46V121.577H216.539C216.678 121.166 216.924 120.843 217.275 120.607C217.629 120.369 218.031 120.249 218.478 120.249C218.571 120.249 218.68 120.253 218.806 120.259C218.935 120.266 219.036 120.274 219.109 120.284V121.706C219.05 121.689 218.944 121.671 218.791 121.651C218.639 121.628 218.486 121.616 218.334 121.616C217.982 121.616 217.669 121.691 217.394 121.84C217.122 121.986 216.907 122.19 216.748 122.452C216.589 122.71 216.509 123.005 216.509 123.337V128H215.023ZM223.414 128.154C222.661 128.154 222.013 127.993 221.47 127.672C220.929 127.347 220.512 126.891 220.217 126.305C219.925 125.715 219.779 125.024 219.779 124.232C219.779 123.449 219.925 122.76 220.217 122.163C220.512 121.567 220.923 121.101 221.45 120.766C221.98 120.432 222.6 120.264 223.309 120.264C223.74 120.264 224.158 120.335 224.562 120.478C224.966 120.621 225.329 120.844 225.651 121.149C225.972 121.454 226.226 121.85 226.411 122.337C226.597 122.821 226.69 123.41 226.69 124.102V124.629H220.619V123.516H225.233C225.233 123.125 225.154 122.778 224.994 122.477C224.835 122.172 224.612 121.931 224.323 121.756C224.038 121.58 223.704 121.492 223.319 121.492C222.901 121.492 222.537 121.595 222.225 121.8C221.917 122.003 221.678 122.268 221.509 122.596C221.344 122.921 221.261 123.274 221.261 123.655V124.525C221.261 125.035 221.35 125.469 221.529 125.827C221.712 126.185 221.965 126.459 222.29 126.648C222.615 126.833 222.994 126.926 223.428 126.926C223.71 126.926 223.967 126.886 224.199 126.807C224.431 126.724 224.632 126.601 224.801 126.439C224.97 126.277 225.099 126.076 225.188 125.837L226.595 126.091C226.483 126.505 226.28 126.868 225.989 127.18C225.7 127.488 225.338 127.728 224.9 127.901C224.466 128.07 223.97 128.154 223.414 128.154ZM231.198 128.149C230.581 128.149 230.031 127.992 229.547 127.677C229.067 127.359 228.689 126.906 228.414 126.32C228.142 125.73 228.006 125.022 228.006 124.197C228.006 123.371 228.144 122.665 228.419 122.079C228.697 121.492 229.078 121.043 229.562 120.732C230.046 120.42 230.595 120.264 231.208 120.264C231.682 120.264 232.063 120.344 232.351 120.503C232.643 120.659 232.868 120.841 233.027 121.05C233.19 121.259 233.316 121.442 233.405 121.602H233.495V117.818H234.981V128H233.529V126.812H233.405C233.316 126.974 233.186 127.16 233.017 127.369C232.852 127.577 232.623 127.76 232.331 127.915C232.04 128.071 231.662 128.149 231.198 128.149ZM231.526 126.881C231.953 126.881 232.315 126.769 232.61 126.543C232.908 126.315 233.133 125.998 233.286 125.594C233.442 125.189 233.52 124.719 233.52 124.182C233.52 123.652 233.443 123.187 233.291 122.79C233.138 122.392 232.915 122.082 232.62 121.86C232.325 121.638 231.96 121.527 231.526 121.527C231.078 121.527 230.706 121.643 230.407 121.875C230.109 122.107 229.884 122.424 229.731 122.825C229.582 123.226 229.507 123.678 229.507 124.182C229.507 124.692 229.584 125.151 229.736 125.559C229.889 125.967 230.114 126.29 230.412 126.528C230.714 126.764 231.085 126.881 231.526 126.881ZM237.103 128V120.364H238.589V128H237.103ZM237.854 119.185C237.595 119.185 237.373 119.099 237.187 118.927C237.005 118.751 236.914 118.542 236.914 118.3C236.914 118.055 237.005 117.846 237.187 117.674C237.373 117.498 237.595 117.411 237.854 117.411C238.112 117.411 238.332 117.498 238.515 117.674C238.7 117.846 238.793 118.055 238.793 118.3C238.793 118.542 238.7 118.751 238.515 118.927C238.332 119.099 238.112 119.185 237.854 119.185ZM244.154 120.364V121.557H239.983V120.364H244.154ZM241.101 118.534H242.588V125.758C242.588 126.046 242.631 126.263 242.717 126.409C242.803 126.552 242.914 126.649 243.05 126.702C243.189 126.752 243.34 126.777 243.502 126.777C243.622 126.777 243.726 126.769 243.816 126.752C243.905 126.736 243.975 126.722 244.025 126.712L244.293 127.94C244.207 127.973 244.084 128.007 243.925 128.04C243.766 128.076 243.567 128.096 243.328 128.099C242.937 128.106 242.573 128.036 242.235 127.891C241.897 127.745 241.623 127.519 241.414 127.214C241.206 126.91 241.101 126.527 241.101 126.066V118.534Z" fill="#A29EA2"/>
<g filter="url(#filter6_d_66_328)">
<rect x="4" y="23" width="247" height="50" rx="10" fill="#32F900" fill-opacity="0.18" shape-rendering="crispEdges"/>
</g>
<path d="M33.9176 60.2169V42.7623H40.3097C41.5483 42.7623 42.5739 42.9669 43.3864 43.3759C44.1989 43.7794 44.8068 44.3277 45.2102 45.0208C45.6136 45.7083 45.8153 46.4839 45.8153 47.3475C45.8153 48.0748 45.6818 48.6884 45.4148 49.1884C45.1477 49.6828 44.7898 50.0805 44.3409 50.3816C43.8977 50.6771 43.4091 50.893 42.875 51.0294V51.1998C43.4545 51.2282 44.0199 51.4157 44.571 51.7623C45.1278 52.1032 45.5881 52.589 45.9517 53.2197C46.3153 53.8504 46.4972 54.6174 46.4972 55.5208C46.4972 56.4129 46.2869 57.214 45.8665 57.9242C45.4517 58.6288 44.8097 59.1884 43.9403 59.6032C43.071 60.0123 41.9602 60.2169 40.608 60.2169H33.9176ZM36.5511 57.9583H40.3523C41.6136 57.9583 42.517 57.714 43.0625 57.2254C43.608 56.7367 43.8807 56.1259 43.8807 55.393C43.8807 54.8419 43.7415 54.3362 43.4631 53.8759C43.1847 53.4157 42.7869 53.0492 42.2699 52.7765C41.7585 52.5038 41.1506 52.3674 40.446 52.3674H36.5511V57.9583ZM36.5511 50.3134H40.0795C40.6705 50.3134 41.2017 50.1998 41.6733 49.9725C42.1506 49.7453 42.5284 49.4271 42.8068 49.018C43.0909 48.6032 43.233 48.1146 43.233 47.5521C43.233 46.8305 42.9801 46.2254 42.4744 45.7367C41.9688 45.2481 41.1932 45.0038 40.1477 45.0038H36.5511V50.3134ZM59.1406 47.3475C59.0497 46.5407 58.6747 45.9157 58.0156 45.4725C57.3565 45.0237 56.527 44.7992 55.527 44.7992C54.8111 44.7992 54.1918 44.9129 53.669 45.1402C53.1463 45.3617 52.7401 45.6686 52.4503 46.0606C52.1662 46.447 52.0241 46.8873 52.0241 47.3816C52.0241 47.7964 52.1207 48.1544 52.3139 48.4555C52.5128 48.7566 52.7713 49.0095 53.0895 49.214C53.4134 49.4129 53.7599 49.5805 54.1293 49.7169C54.4986 49.8475 54.8537 49.9555 55.1946 50.0407L56.8991 50.4839C57.456 50.6203 58.027 50.8049 58.6122 51.0379C59.1974 51.2708 59.7401 51.5777 60.2401 51.9583C60.7401 52.339 61.1435 52.8106 61.4503 53.3731C61.7628 53.9356 61.919 54.6089 61.919 55.393C61.919 56.3816 61.6634 57.2595 61.152 58.0265C60.6463 58.7936 59.9105 59.3987 58.9446 59.8419C57.9844 60.285 56.8224 60.5066 55.4588 60.5066C54.152 60.5066 53.0213 60.2992 52.0668 59.8845C51.1122 59.4697 50.3651 58.8816 49.8253 58.1203C49.2855 57.3532 48.9872 56.4441 48.9304 55.393H51.5724C51.6236 56.0237 51.8281 56.5492 52.1861 56.9697C52.5497 57.3845 53.0128 57.6941 53.5753 57.8987C54.1435 58.0975 54.7656 58.197 55.4418 58.197C56.1861 58.197 56.848 58.0805 57.4276 57.8475C58.0128 57.6089 58.473 57.2794 58.8082 56.8589C59.1435 56.4328 59.3111 55.9356 59.3111 55.3674C59.3111 54.8504 59.1634 54.4271 58.8679 54.0975C58.5781 53.768 58.1832 53.4953 57.6832 53.2794C57.1889 53.0634 56.6293 52.8731 56.0043 52.7083L53.9418 52.1458C52.544 51.7652 51.4361 51.2055 50.6179 50.4669C49.8054 49.7282 49.3991 48.7509 49.3991 47.535C49.3991 46.5294 49.6719 45.6515 50.2173 44.9015C50.7628 44.1515 51.5014 43.5691 52.4332 43.1544C53.3651 42.7339 54.4162 42.5237 55.5866 42.5237C56.7685 42.5237 57.8111 42.7311 58.7145 43.1458C59.6236 43.5606 60.3395 44.1316 60.8622 44.8589C61.3849 45.5805 61.6577 46.41 61.6804 47.3475H59.1406ZM66.3999 60.2169H63.6044L69.8857 42.7623H72.9283L79.2095 60.2169H76.4141L71.4794 45.9328H71.343L66.3999 60.2169ZM66.8686 53.3816H75.9368V55.5975H66.8686V53.3816ZM87.3807 60.2169H81.7301V42.7623H87.5597C89.2699 42.7623 90.7386 43.1117 91.9659 43.8106C93.1932 44.5038 94.1335 45.5009 94.7869 46.8021C95.446 48.0975 95.7756 49.6515 95.7756 51.464C95.7756 53.2822 95.4432 54.8447 94.7784 56.1515C94.1193 57.4583 93.1648 58.464 91.9148 59.1686C90.6648 59.8674 89.1534 60.2169 87.3807 60.2169ZM84.3636 57.9157H87.2358C88.5653 57.9157 89.6705 57.6657 90.5511 57.1657C91.4318 56.66 92.0909 55.9299 92.5284 54.9754C92.9659 54.0152 93.1847 52.8447 93.1847 51.464C93.1847 50.0947 92.9659 48.9328 92.5284 47.9782C92.0966 47.0237 91.4517 46.2992 90.5938 45.8049C89.7358 45.3106 88.6705 45.0634 87.3977 45.0634H84.3636V57.9157ZM111.786 42.7623V60.2169H109.143V45.4044H109.041L104.865 48.1316V45.6089L109.22 42.7623H111.786ZM123.129 42.7623V60.2169H120.487V45.4044H120.385L116.209 48.1316V45.6089L120.564 42.7623H123.129ZM134.473 42.7623V60.2169H131.831V45.4044H131.729L127.553 48.1316V45.6089L131.908 42.7623H134.473Z" fill="black"/>
<path d="M199.842 57.8182V68H198.301V59.3594H198.241L195.805 60.9503V59.4787L198.346 57.8182H199.842ZM214.898 61.1293H213.346C213.287 60.7978 213.176 60.5062 213.013 60.2543C212.851 60.0024 212.652 59.7886 212.417 59.6129C212.181 59.4373 211.918 59.3047 211.626 59.2152C211.338 59.1257 211.031 59.081 210.706 59.081C210.12 59.081 209.595 59.2285 209.131 59.5234C208.67 59.8184 208.305 60.2509 208.037 60.821C207.772 61.3911 207.639 62.0871 207.639 62.9091C207.639 63.7377 207.772 64.437 208.037 65.0071C208.305 65.5772 208.671 66.008 209.135 66.2997C209.599 66.5914 210.122 66.7372 210.702 66.7372C211.023 66.7372 211.328 66.6941 211.616 66.608C211.908 66.5185 212.171 66.3875 212.407 66.2152C212.642 66.0429 212.841 65.8324 213.003 65.5838C213.169 65.3319 213.283 65.0436 213.346 64.7188L214.898 64.7237C214.815 65.2242 214.654 65.6849 214.415 66.1058C214.18 66.5234 213.877 66.8847 213.506 67.1896C213.138 67.4912 212.717 67.7249 212.243 67.8906C211.769 68.0563 211.252 68.1392 210.692 68.1392C209.81 68.1392 209.024 67.9304 208.335 67.5128C207.646 67.0919 207.102 66.4903 206.704 65.7081C206.31 64.9259 206.113 63.9929 206.113 62.9091C206.113 61.822 206.312 60.889 206.709 60.1101C207.107 59.3279 207.651 58.728 208.34 58.3104C209.029 57.8894 209.813 57.679 210.692 57.679C211.232 57.679 211.736 57.7569 212.203 57.9126C212.674 58.0651 213.096 58.2905 213.471 58.5888C213.845 58.8838 214.155 59.245 214.4 59.6726C214.646 60.0968 214.811 60.5824 214.898 61.1293ZM216.616 68V60.3636H218.053V61.5767H218.133C218.272 61.1657 218.517 60.8426 218.869 60.6072C219.223 60.3686 219.624 60.2493 220.072 60.2493C220.165 60.2493 220.274 60.2526 220.4 60.2592C220.529 60.2659 220.63 60.2741 220.703 60.2841V61.706C220.643 61.6894 220.537 61.6712 220.385 61.6513C220.232 61.6281 220.08 61.6165 219.928 61.6165C219.576 61.6165 219.263 61.6911 218.988 61.8402C218.716 61.986 218.501 62.1899 218.342 62.4517C218.183 62.7102 218.103 63.0052 218.103 63.3366V68H216.616ZM225.007 68.1541C224.255 68.1541 223.607 67.9934 223.063 67.6719C222.523 67.3471 222.106 66.8913 221.811 66.3047C221.519 65.7147 221.373 65.0237 221.373 64.2315C221.373 63.4493 221.519 62.7599 221.811 62.1634C222.106 61.5668 222.517 61.1011 223.044 60.7663C223.574 60.4316 224.194 60.2642 224.903 60.2642C225.334 60.2642 225.751 60.3355 226.156 60.478C226.56 60.6205 226.923 60.8442 227.244 61.1491C227.566 61.4541 227.82 61.8501 228.005 62.3374C228.191 62.8213 228.284 63.4096 228.284 64.1023V64.6293H222.213V63.5156H226.827C226.827 63.1245 226.747 62.7782 226.588 62.4766C226.429 62.1716 226.205 61.9313 225.917 61.7557C225.632 61.58 225.297 61.4922 224.913 61.4922C224.495 61.4922 224.131 61.5949 223.819 61.8004C223.511 62.0026 223.272 62.2678 223.103 62.5959C222.937 62.9207 222.855 63.2737 222.855 63.6548V64.5249C222.855 65.0353 222.944 65.4695 223.123 65.8274C223.305 66.1854 223.559 66.4588 223.884 66.6477C224.209 66.8333 224.588 66.9261 225.022 66.9261C225.304 66.9261 225.561 66.8864 225.793 66.8068C226.025 66.724 226.225 66.6013 226.394 66.4389C226.563 66.2765 226.693 66.076 226.782 65.8374L228.189 66.0909C228.076 66.5052 227.874 66.8681 227.583 67.1797C227.294 67.4879 226.931 67.7282 226.494 67.9006C226.06 68.0696 225.564 68.1541 225.007 68.1541ZM232.792 68.1491C232.175 68.1491 231.625 67.9917 231.141 67.6768C230.66 67.3587 230.283 66.9062 230.007 66.3196C229.736 65.7296 229.6 65.022 229.6 64.1967C229.6 63.3714 229.737 62.6655 230.012 62.0788C230.291 61.4922 230.672 61.0431 231.156 60.7315C231.64 60.42 232.188 60.2642 232.801 60.2642C233.275 60.2642 233.657 60.3438 233.945 60.5028C234.237 60.6586 234.462 60.8409 234.621 61.0497C234.783 61.2585 234.909 61.4425 234.999 61.6016H235.088V57.8182H236.575V68H235.123V66.8118H234.999C234.909 66.9742 234.78 67.1598 234.611 67.3686C234.445 67.5774 234.217 67.7597 233.925 67.9155C233.633 68.0713 233.256 68.1491 232.792 68.1491ZM233.12 66.8814C233.547 66.8814 233.908 66.7687 234.203 66.5433C234.502 66.3146 234.727 65.9981 234.88 65.5938C235.035 65.1894 235.113 64.7187 235.113 64.1818C235.113 63.6515 235.037 63.1875 234.885 62.7898C234.732 62.392 234.508 62.0821 234.213 61.8601C233.918 61.638 233.554 61.527 233.12 61.527C232.672 61.527 232.299 61.643 232.001 61.875C231.703 62.107 231.477 62.4235 231.325 62.8246C231.176 63.2256 231.101 63.678 231.101 64.1818C231.101 64.6922 231.177 65.1513 231.33 65.5589C231.482 65.9666 231.708 66.2898 232.006 66.5284C232.308 66.7637 232.679 66.8814 233.12 66.8814ZM238.697 68V60.3636H240.183V68H238.697ZM239.447 59.1854C239.189 59.1854 238.967 59.0992 238.781 58.9268C238.599 58.7512 238.508 58.5424 238.508 58.3004C238.508 58.0552 238.599 57.8464 238.781 57.674C238.967 57.4983 239.189 57.4105 239.447 57.4105C239.706 57.4105 239.926 57.4983 240.108 57.674C240.294 57.8464 240.387 58.0552 240.387 58.3004C240.387 58.5424 240.294 58.7512 240.108 58.9268C239.926 59.0992 239.706 59.1854 239.447 59.1854ZM245.748 60.3636V61.5568H241.576V60.3636H245.748ZM242.695 58.5341H244.181V65.7578C244.181 66.0462 244.225 66.2633 244.311 66.4091C244.397 66.5516 244.508 66.6494 244.644 66.7024C244.783 66.7521 244.934 66.777 245.096 66.777C245.216 66.777 245.32 66.7687 245.409 66.7521C245.499 66.7356 245.569 66.7223 245.618 66.7124L245.887 67.9403C245.801 67.9735 245.678 68.0066 245.519 68.0398C245.36 68.0762 245.161 68.0961 244.922 68.0994C244.531 68.1061 244.167 68.0365 243.828 67.8906C243.49 67.7448 243.217 67.5194 243.008 67.2145C242.799 66.9096 242.695 66.5268 242.695 66.0661V58.5341Z" fill="#A29EA2"/>
<path d="M11.625 6.42045C11.5644 5.88258 11.3144 5.46591 10.875 5.17045C10.4356 4.87121 9.88258 4.72159 9.21591 4.72159C8.73864 4.72159 8.32576 4.79735 7.97727 4.94886C7.62879 5.09659 7.35795 5.30114 7.16477 5.5625C6.97538 5.82008 6.88068 6.11364 6.88068 6.44318C6.88068 6.7197 6.94508 6.95833 7.07386 7.15909C7.20644 7.35985 7.37879 7.52841 7.59091 7.66477C7.80682 7.79735 8.03788 7.90909 8.28409 8C8.5303 8.08712 8.76705 8.15909 8.99432 8.21591L10.1307 8.51136C10.5019 8.60227 10.8826 8.72538 11.2727 8.88068C11.6629 9.03598 12.0246 9.24053 12.358 9.49432C12.6913 9.74811 12.9602 10.0625 13.1648 10.4375C13.3731 10.8125 13.4773 11.2614 13.4773 11.7841C13.4773 12.4432 13.3068 13.0284 12.9659 13.5398C12.6288 14.0511 12.1383 14.4545 11.4943 14.75C10.8542 15.0455 10.0795 15.1932 9.17045 15.1932C8.29924 15.1932 7.54545 15.0549 6.90909 14.7784C6.27273 14.5019 5.77462 14.1098 5.41477 13.6023C5.05492 13.0909 4.85606 12.4848 4.81818 11.7841H6.57955C6.61364 12.2045 6.75 12.5549 6.98864 12.8352C7.23106 13.1117 7.53977 13.3182 7.91477 13.4545C8.29356 13.5871 8.70833 13.6534 9.15909 13.6534C9.6553 13.6534 10.0966 13.5758 10.483 13.4205C10.8731 13.2614 11.1799 13.0417 11.4034 12.7614C11.6269 12.4773 11.7386 12.1458 11.7386 11.767C11.7386 11.4223 11.6402 11.1402 11.4432 10.9205C11.25 10.7008 10.9867 10.5189 10.6534 10.375C10.3239 10.2311 9.95076 10.1042 9.53409 9.99432L8.15909 9.61932C7.22727 9.36553 6.48864 8.99242 5.94318 8.5C5.40152 8.00758 5.13068 7.35606 5.13068 6.54545C5.13068 5.875 5.3125 5.28977 5.67614 4.78977C6.03977 4.28977 6.5322 3.90151 7.15341 3.625C7.77462 3.3447 8.47538 3.20455 9.25568 3.20455C10.0436 3.20455 10.7386 3.3428 11.3409 3.61932C11.947 3.89583 12.4242 4.27652 12.7727 4.76136C13.1212 5.24242 13.303 5.79545 13.3182 6.42045H11.625ZM19.2003 15.1761C18.3404 15.1761 17.5999 14.9924 16.9787 14.625C16.3613 14.2538 15.884 13.733 15.5469 13.0625C15.2135 12.3883 15.0469 11.5985 15.0469 10.6932C15.0469 9.79924 15.2135 9.01136 15.5469 8.32955C15.884 7.64773 16.3537 7.11553 16.956 6.73295C17.562 6.35038 18.2704 6.15909 19.081 6.15909C19.5734 6.15909 20.0507 6.24053 20.5128 6.40341C20.9749 6.56629 21.3897 6.82197 21.7571 7.17045C22.1245 7.51894 22.4143 7.97159 22.6264 8.52841C22.8385 9.08144 22.9446 9.75379 22.9446 10.5455V11.1477H16.0071V9.875H21.2798C21.2798 9.42803 21.1889 9.0322 21.0071 8.6875C20.8253 8.33902 20.5696 8.06439 20.2401 7.86364C19.9143 7.66288 19.5317 7.5625 19.0923 7.5625C18.6151 7.5625 18.1984 7.67992 17.8423 7.91477C17.4901 8.14583 17.2173 8.44886 17.0241 8.82386C16.8348 9.19508 16.7401 9.59848 16.7401 10.0341V11.0284C16.7401 11.6117 16.8423 12.108 17.0469 12.517C17.2552 12.9261 17.545 13.2386 17.9162 13.4545C18.2874 13.6667 18.7211 13.7727 19.2173 13.7727C19.5393 13.7727 19.8329 13.7273 20.098 13.6364C20.3632 13.5417 20.5923 13.4015 20.7855 13.2159C20.9787 13.0303 21.1264 12.8011 21.2287 12.5284L22.8366 12.8182C22.7079 13.2917 22.4768 13.7064 22.1435 14.0625C21.8139 14.4148 21.3991 14.6894 20.8991 14.8864C20.4029 15.0795 19.8366 15.1761 19.2003 15.1761ZM24.8295 15V6.27273H26.4602V7.69318H26.5682C26.75 7.21212 27.0473 6.83712 27.4602 6.56818C27.8731 6.29545 28.3674 6.15909 28.9432 6.15909C29.5265 6.15909 30.0152 6.29545 30.4091 6.56818C30.8068 6.84091 31.1004 7.21591 31.2898 7.69318H31.3807C31.589 7.22727 31.9205 6.85606 32.375 6.57955C32.8295 6.29924 33.3712 6.15909 34 6.15909C34.7917 6.15909 35.4375 6.4072 35.9375 6.90341C36.4413 7.39962 36.6932 8.14773 36.6932 9.14773V15H34.9943V9.30682C34.9943 8.71591 34.8333 8.28788 34.5114 8.02273C34.1894 7.75758 33.8049 7.625 33.358 7.625C32.8049 7.625 32.375 7.79545 32.0682 8.13636C31.7614 8.47348 31.608 8.9072 31.608 9.4375V15H29.9148V9.19886C29.9148 8.72538 29.767 8.3447 29.4716 8.05682C29.1761 7.76894 28.7917 7.625 28.3182 7.625C27.9962 7.625 27.6989 7.71023 27.4261 7.88068C27.1572 8.04735 26.9394 8.2803 26.7727 8.57955C26.6098 8.87879 26.5284 9.22538 26.5284 9.61932V15H24.8295ZM42.7315 15.1761C41.8717 15.1761 41.1312 14.9924 40.5099 14.625C39.8925 14.2538 39.4152 13.733 39.0781 13.0625C38.7448 12.3883 38.5781 11.5985 38.5781 10.6932C38.5781 9.79924 38.7448 9.01136 39.0781 8.32955C39.4152 7.64773 39.8849 7.11553 40.4872 6.73295C41.0933 6.35038 41.8016 6.15909 42.6122 6.15909C43.1046 6.15909 43.5819 6.24053 44.044 6.40341C44.5062 6.56629 44.9209 6.82197 45.2884 7.17045C45.6558 7.51894 45.9455 7.97159 46.1577 8.52841C46.3698 9.08144 46.4759 9.75379 46.4759 10.5455V11.1477H39.5384V9.875H44.8111C44.8111 9.42803 44.7202 9.0322 44.5384 8.6875C44.3565 8.33902 44.1009 8.06439 43.7713 7.86364C43.4455 7.66288 43.063 7.5625 42.6236 7.5625C42.1463 7.5625 41.7296 7.67992 41.3736 7.91477C41.0213 8.14583 40.7486 8.44886 40.5554 8.82386C40.366 9.19508 40.2713 9.59848 40.2713 10.0341V11.0284C40.2713 11.6117 40.3736 12.108 40.5781 12.517C40.7865 12.9261 41.0762 13.2386 41.4474 13.4545C41.8187 13.6667 42.2524 13.7727 42.7486 13.7727C43.0705 13.7727 43.3641 13.7273 43.6293 13.6364C43.8944 13.5417 44.1236 13.4015 44.3168 13.2159C44.5099 13.0303 44.6577 12.8011 44.7599 12.5284L46.3679 12.8182C46.2391 13.2917 46.008 13.7064 45.6747 14.0625C45.3452 14.4148 44.9304 14.6894 44.4304 14.8864C43.9342 15.0795 43.3679 15.1761 42.7315 15.1761ZM54.9006 8.40341L53.3608 8.67614C53.2964 8.47917 53.1941 8.29167 53.054 8.11364C52.9176 7.93561 52.732 7.78977 52.4972 7.67614C52.2623 7.5625 51.9688 7.50568 51.6165 7.50568C51.1354 7.50568 50.7339 7.61364 50.4119 7.82955C50.09 8.04167 49.929 8.31629 49.929 8.65341C49.929 8.94508 50.0369 9.17992 50.2528 9.35795C50.4688 9.53598 50.8172 9.68182 51.2983 9.79545L52.6847 10.1136C53.4877 10.2992 54.0862 10.5852 54.4801 10.9716C54.8741 11.358 55.071 11.8598 55.071 12.4773C55.071 13 54.9195 13.4659 54.6165 13.875C54.3172 14.2803 53.8987 14.5985 53.3608 14.8295C52.8267 15.0606 52.2074 15.1761 51.5028 15.1761C50.5256 15.1761 49.7282 14.9678 49.1108 14.5511C48.4934 14.1307 48.1146 13.5341 47.9744 12.7614L49.6165 12.5114C49.7188 12.9394 49.929 13.2633 50.2472 13.483C50.5653 13.6989 50.9801 13.8068 51.4915 13.8068C52.0483 13.8068 52.4934 13.6913 52.8267 13.4602C53.16 13.2254 53.3267 12.9394 53.3267 12.6023C53.3267 12.3295 53.2244 12.1004 53.0199 11.9148C52.8191 11.7292 52.5104 11.589 52.0938 11.4943L50.6165 11.1705C49.8021 10.9848 49.1998 10.6894 48.8097 10.2841C48.4233 9.87879 48.2301 9.36553 48.2301 8.74432C48.2301 8.22917 48.3741 7.77841 48.6619 7.39205C48.9498 7.00568 49.3475 6.70455 49.8551 6.48864C50.3627 6.26894 50.9441 6.15909 51.5994 6.15909C52.5426 6.15909 53.285 6.36364 53.8267 6.77273C54.3684 7.17803 54.7263 7.72159 54.9006 8.40341ZM61.0128 6.27273V7.63636H56.2457V6.27273H61.0128ZM57.5241 4.18182H59.223V12.4375C59.223 12.767 59.2723 13.0152 59.3707 13.1818C59.4692 13.3447 59.5961 13.4564 59.7514 13.517C59.9105 13.5739 60.0829 13.6023 60.2685 13.6023C60.4048 13.6023 60.5241 13.5928 60.6264 13.5739C60.7287 13.5549 60.8082 13.5398 60.8651 13.5284L61.1719 14.9318C61.0734 14.9697 60.9332 15.0076 60.7514 15.0455C60.5696 15.0871 60.3423 15.1098 60.0696 15.1136C59.6226 15.1212 59.206 15.0417 58.8196 14.875C58.4332 14.7083 58.1207 14.4508 57.8821 14.1023C57.6435 13.7538 57.5241 13.3163 57.5241 12.7898V4.18182ZM66.5597 15.1761C65.6998 15.1761 64.9593 14.9924 64.3381 14.625C63.7206 14.2538 63.2434 13.733 62.9062 13.0625C62.5729 12.3883 62.4062 11.5985 62.4062 10.6932C62.4062 9.79924 62.5729 9.01136 62.9062 8.32955C63.2434 7.64773 63.7131 7.11553 64.3153 6.73295C64.9214 6.35038 65.6297 6.15909 66.4403 6.15909C66.9328 6.15909 67.41 6.24053 67.8722 6.40341C68.3343 6.56629 68.7491 6.82197 69.1165 7.17045C69.4839 7.51894 69.7737 7.97159 69.9858 8.52841C70.1979 9.08144 70.304 9.75379 70.304 10.5455V11.1477H63.3665V9.875H68.6392C68.6392 9.42803 68.5483 9.0322 68.3665 8.6875C68.1847 8.33902 67.929 8.06439 67.5994 7.86364C67.2737 7.66288 66.8911 7.5625 66.4517 7.5625C65.9744 7.5625 65.5578 7.67992 65.2017 7.91477C64.8494 8.14583 64.5767 8.44886 64.3835 8.82386C64.1941 9.19508 64.0994 9.59848 64.0994 10.0341V11.0284C64.0994 11.6117 64.2017 12.108 64.4062 12.517C64.6146 12.9261 64.9044 13.2386 65.2756 13.4545C65.6468 13.6667 66.0805 13.7727 66.5767 13.7727C66.8987 13.7727 67.1922 13.7273 67.4574 13.6364C67.7225 13.5417 67.9517 13.4015 68.1449 13.2159C68.3381 13.0303 68.4858 12.8011 68.5881 12.5284L70.196 12.8182C70.0672 13.2917 69.8362 13.7064 69.5028 14.0625C69.1733 14.4148 68.7585 14.6894 68.2585 14.8864C67.7623 15.0795 67.196 15.1761 66.5597 15.1761ZM72.1889 15V6.27273H73.831V7.65909H73.9219C74.081 7.18939 74.3613 6.82008 74.7628 6.55114C75.1681 6.27841 75.6264 6.14205 76.1378 6.14205C76.2438 6.14205 76.3688 6.14583 76.5128 6.15341C76.6605 6.16098 76.776 6.17045 76.8594 6.18182V7.80682C76.7912 7.78788 76.67 7.76705 76.4957 7.74432C76.3215 7.7178 76.1473 7.70455 75.973 7.70455C75.5715 7.70455 75.2135 7.78977 74.8991 7.96023C74.5885 8.12689 74.3423 8.35985 74.1605 8.65909C73.9787 8.95455 73.8878 9.29167 73.8878 9.67045V15H72.1889ZM86.956 3.36364V15H85.1946V5.125H85.1264L82.3423 6.94318V5.26136L85.2457 3.36364H86.956Z" fill="#A29EA2"/>
<path d="M176.534 3.36364V15H174.773V5.125H174.705L171.92 6.94318V5.26136L174.824 3.36364H176.534ZM183.744 15.1591C183.225 15.1515 182.714 15.0568 182.21 14.875C181.71 14.6932 181.256 14.3902 180.847 13.9659C180.438 13.5417 180.11 12.9716 179.864 12.2557C179.621 11.5398 179.5 10.6458 179.5 9.57386C179.5 8.55871 179.6 7.6572 179.801 6.86932C180.006 6.08144 180.299 5.41667 180.682 4.875C181.064 4.32955 181.527 3.91477 182.068 3.63068C182.61 3.34659 183.218 3.20455 183.892 3.20455C184.585 3.20455 185.201 3.34091 185.739 3.61364C186.277 3.88636 186.712 4.26326 187.045 4.74432C187.383 5.22538 187.597 5.77273 187.688 6.38636H185.955C185.837 5.90152 185.604 5.50568 185.256 5.19886C184.907 4.89205 184.453 4.73864 183.892 4.73864C183.04 4.73864 182.375 5.10985 181.898 5.85227C181.424 6.5947 181.186 7.62689 181.182 8.94886H181.267C181.468 8.61932 181.714 8.33901 182.006 8.10795C182.301 7.87311 182.631 7.69318 182.994 7.56818C183.362 7.43939 183.748 7.375 184.153 7.375C184.828 7.375 185.438 7.53977 185.983 7.86932C186.532 8.19508 186.97 8.64583 187.295 9.22159C187.621 9.79735 187.784 10.4564 187.784 11.1989C187.784 11.9413 187.616 12.6136 187.278 13.2159C186.945 13.8182 186.475 14.2955 185.869 14.6477C185.263 14.9962 184.555 15.1667 183.744 15.1591ZM183.739 13.6818C184.186 13.6818 184.585 13.572 184.938 13.3523C185.29 13.1326 185.568 12.8371 185.773 12.4659C185.977 12.0947 186.08 11.6799 186.08 11.2216C186.08 10.7746 185.979 10.3674 185.778 10C185.581 9.63258 185.309 9.34091 184.96 9.125C184.616 8.90909 184.222 8.80114 183.778 8.80114C183.441 8.80114 183.129 8.86553 182.841 8.99432C182.557 9.12311 182.307 9.30114 182.091 9.52841C181.875 9.75568 181.705 10.017 181.58 10.3125C181.458 10.6042 181.398 10.9129 181.398 11.2386C181.398 11.6742 181.498 12.0777 181.699 12.4489C181.903 12.8201 182.182 13.1193 182.534 13.3466C182.89 13.5701 183.292 13.6818 183.739 13.6818ZM203.912 7.14773H202.139C202.071 6.76894 201.944 6.43561 201.759 6.14773C201.573 5.85985 201.346 5.61553 201.077 5.41477C200.808 5.21401 200.507 5.0625 200.173 4.96023C199.844 4.85795 199.493 4.80682 199.122 4.80682C198.452 4.80682 197.851 4.97538 197.321 5.3125C196.795 5.64962 196.378 6.14394 196.071 6.79545C195.768 7.44697 195.616 8.24242 195.616 9.18182C195.616 10.1288 195.768 10.928 196.071 11.5795C196.378 12.2311 196.796 12.7235 197.327 13.0568C197.857 13.3902 198.454 13.5568 199.116 13.5568C199.484 13.5568 199.832 13.5076 200.162 13.4091C200.495 13.3068 200.796 13.1572 201.065 12.9602C201.334 12.7633 201.562 12.5227 201.747 12.2386C201.937 11.9508 202.067 11.6212 202.139 11.25L203.912 11.2557C203.817 11.8277 203.634 12.3542 203.361 12.8352C203.092 13.3125 202.745 13.7254 202.321 14.0739C201.901 14.4186 201.42 14.6856 200.878 14.875C200.336 15.0644 199.745 15.1591 199.105 15.1591C198.098 15.1591 197.2 14.9205 196.412 14.4432C195.624 13.9621 195.003 13.2746 194.548 12.3807C194.098 11.4867 193.872 10.4205 193.872 9.18182C193.872 7.93939 194.099 6.87311 194.554 5.98295C195.009 5.08901 195.63 4.40341 196.418 3.92614C197.205 3.44508 198.101 3.20455 199.105 3.20455C199.723 3.20455 200.298 3.29356 200.832 3.47159C201.37 3.64583 201.853 3.90341 202.281 4.24432C202.709 4.58144 203.063 4.99432 203.344 5.48295C203.624 5.9678 203.813 6.52273 203.912 7.14773ZM205.876 15V6.27273H207.518V7.65909H207.609C207.768 7.18939 208.049 6.82008 208.45 6.55114C208.856 6.27841 209.314 6.14205 209.825 6.14205C209.931 6.14205 210.056 6.14583 210.2 6.15341C210.348 6.16098 210.464 6.17045 210.547 6.18182V7.80682C210.479 7.78788 210.357 7.76705 210.183 7.74432C210.009 7.7178 209.835 7.70455 209.661 7.70455C209.259 7.70455 208.901 7.78977 208.587 7.96023C208.276 8.12689 208.03 8.35985 207.848 8.65909C207.666 8.95455 207.575 9.29167 207.575 9.67045V15H205.876ZM215.466 15.1761C214.606 15.1761 213.866 14.9924 213.244 14.625C212.627 14.2538 212.15 13.733 211.812 13.0625C211.479 12.3883 211.312 11.5985 211.312 10.6932C211.312 9.79924 211.479 9.01136 211.812 8.32955C212.15 7.64773 212.619 7.11553 213.222 6.73295C213.828 6.35038 214.536 6.15909 215.347 6.15909C215.839 6.15909 216.316 6.24053 216.778 6.40341C217.241 6.56629 217.655 6.82197 218.023 7.17045C218.39 7.51894 218.68 7.97159 218.892 8.52841C219.104 9.08144 219.21 9.75379 219.21 10.5455V11.1477H212.273V9.875H217.545C217.545 9.42803 217.455 9.0322 217.273 8.6875C217.091 8.33902 216.835 8.06439 216.506 7.86364C216.18 7.66288 215.797 7.5625 215.358 7.5625C214.881 7.5625 214.464 7.67992 214.108 7.91477C213.756 8.14583 213.483 8.44886 213.29 8.82386C213.1 9.19508 213.006 9.59848 213.006 10.0341V11.0284C213.006 11.6117 213.108 12.108 213.312 12.517C213.521 12.9261 213.811 13.2386 214.182 13.4545C214.553 13.6667 214.987 13.7727 215.483 13.7727C215.805 13.7727 216.098 13.7273 216.364 13.6364C216.629 13.5417 216.858 13.4015 217.051 13.2159C217.244 13.0303 217.392 12.8011 217.494 12.5284L219.102 12.8182C218.973 13.2917 218.742 13.7064 218.409 14.0625C218.08 14.4148 217.665 14.6894 217.165 14.8864C216.669 15.0795 216.102 15.1761 215.466 15.1761ZM224.362 15.1705C223.658 15.1705 223.029 14.9905 222.476 14.6307C221.927 14.267 221.495 13.75 221.18 13.0795C220.87 12.4053 220.714 11.5966 220.714 10.6534C220.714 9.71023 220.872 8.90341 221.186 8.23295C221.504 7.5625 221.94 7.04924 222.493 6.69318C223.046 6.33712 223.673 6.15909 224.374 6.15909C224.915 6.15909 225.351 6.25 225.68 6.43182C226.014 6.60985 226.271 6.81818 226.453 7.05682C226.639 7.29545 226.783 7.50568 226.885 7.6875H226.987V3.36364H228.686V15H227.027V13.642H226.885C226.783 13.8277 226.635 14.0398 226.442 14.2784C226.252 14.517 225.991 14.7254 225.658 14.9034C225.324 15.0814 224.893 15.1705 224.362 15.1705ZM224.737 13.7216C225.226 13.7216 225.639 13.5928 225.976 13.3352C226.317 13.0739 226.574 12.7121 226.749 12.25C226.927 11.7879 227.016 11.25 227.016 10.6364C227.016 10.0303 226.929 9.5 226.754 9.04545C226.58 8.59091 226.324 8.23674 225.987 7.98295C225.65 7.72917 225.233 7.60227 224.737 7.60227C224.226 7.60227 223.8 7.73485 223.459 8C223.118 8.26515 222.86 8.62689 222.686 9.08523C222.516 9.54356 222.43 10.0606 222.43 10.6364C222.43 11.2197 222.518 11.7443 222.692 12.2102C222.866 12.6761 223.124 13.0455 223.464 13.3182C223.809 13.5871 224.233 13.7216 224.737 13.7216ZM231.111 15V6.27273H232.81V15H231.111ZM231.969 4.92614C231.673 4.92614 231.42 4.82765 231.207 4.63068C230.999 4.42992 230.895 4.19129 230.895 3.91477C230.895 3.63447 230.999 3.39583 231.207 3.19886C231.42 2.99811 231.673 2.89773 231.969 2.89773C232.264 2.89773 232.516 2.99811 232.724 3.19886C232.937 3.39583 233.043 3.63447 233.043 3.91477C233.043 4.19129 232.937 4.42992 232.724 4.63068C232.516 4.82765 232.264 4.92614 231.969 4.92614ZM239.169 6.27273V7.63636H234.402V6.27273H239.169ZM235.68 4.18182H237.379V12.4375C237.379 12.767 237.429 13.0152 237.527 13.1818C237.625 13.3447 237.752 13.4564 237.908 13.517C238.067 13.5739 238.239 13.6023 238.425 13.6023C238.561 13.6023 238.68 13.5928 238.783 13.5739C238.885 13.5549 238.964 13.5398 239.021 13.5284L239.328 14.9318C239.23 14.9697 239.089 15.0076 238.908 15.0455C238.726 15.0871 238.499 15.1098 238.226 15.1136C237.779 15.1212 237.362 15.0417 236.976 14.875C236.589 14.7083 236.277 14.4508 236.038 14.1023C235.8 13.7538 235.68 13.3163 235.68 12.7898V4.18182ZM247.447 8.40341L245.908 8.67614C245.843 8.47917 245.741 8.29167 245.601 8.11364C245.464 7.93561 245.279 7.78977 245.044 7.67614C244.809 7.5625 244.516 7.50568 244.163 7.50568C243.682 7.50568 243.281 7.61364 242.959 7.82955C242.637 8.04167 242.476 8.31629 242.476 8.65341C242.476 8.94508 242.584 9.17992 242.8 9.35795C243.016 9.53598 243.364 9.68182 243.845 9.79545L245.232 10.1136C246.035 10.2992 246.633 10.5852 247.027 10.9716C247.421 11.358 247.618 11.8598 247.618 12.4773C247.618 13 247.466 13.4659 247.163 13.875C246.864 14.2803 246.446 14.5985 245.908 14.8295C245.374 15.0606 244.754 15.1761 244.05 15.1761C243.072 15.1761 242.275 14.9678 241.658 14.5511C241.04 14.1307 240.661 13.5341 240.521 12.7614L242.163 12.5114C242.266 12.9394 242.476 13.2633 242.794 13.483C243.112 13.6989 243.527 13.8068 244.038 13.8068C244.595 13.8068 245.04 13.6913 245.374 13.4602C245.707 13.2254 245.874 12.9394 245.874 12.6023C245.874 12.3295 245.771 12.1004 245.567 11.9148C245.366 11.7292 245.057 11.589 244.641 11.4943L243.163 11.1705C242.349 10.9848 241.747 10.6894 241.357 10.2841C240.97 9.87879 240.777 9.36553 240.777 8.74432C240.777 8.22917 240.921 7.77841 241.209 7.39205C241.497 7.00568 241.894 6.70455 242.402 6.48864C242.91 6.26894 243.491 6.15909 244.146 6.15909C245.089 6.15909 245.832 6.36364 246.374 6.77273C246.915 7.17803 247.273 7.72159 247.447 8.40341Z" fill="#A29EA2"/>
<defs>
<filter id="filter0_d_66_328" x="0" y="380" width="258" height="44" filterUnits="userSpaceOnUse" color-interpolation-filters="sRGB">
<feFlood flood-opacity="0" result="BackgroundImageFix"/>
<feColorMatrix in="SourceAlpha" type="matrix" values="0 0 0 0 0 0 0 0 0 0 0 0 0 0 0 0 0 0 127 0" result="hardAlpha"/>
<feOffset dy="4"/>
<feGaussianBlur stdDeviation="2"/>
<feComposite in2="hardAlpha" operator="out"/>
<feColorMatrix type="matrix" values="0 0 0 0 0 0 0 0 0 0 0 0 0 0 0 0 0 0 0.25 0"/>
<feBlend mode="normal" in2="BackgroundImageFix" result="effect1_dropShadow_66_328"/>
<feBlend mode="normal" in="SourceGraphic" in2="effect1_dropShadow_66_328" result="shape"/>
</filter>
<filter id="filter1_d_66_328" x="0" y="319" width="258" height="58" filterUnits="userSpaceOnUse" color-interpolation-filters="sRGB">
<feFlood flood-opacity="0" result="BackgroundImageFix"/>
<feColorMatrix in="SourceAlpha" type="matrix" values="0 0 0 0 0 0 0 0 0 0 0 0 0 0 0 0 0 0 127 0" result="hardAlpha"/>
<feOffset dy="4"/>
<feGaussianBlur stdDeviation="2"/>
<feComposite in2="hardAlpha" operator="out"/>
<feColorMatrix type="matrix" values="0 0 0 0 0 0 0 0 0 0 0 0 0 0 0 0 0 0 0.25 0"/>
<feBlend mode="normal" in2="BackgroundImageFix" result="effect1_dropShadow_66_328"/>
<feBlend mode="normal" in="SourceGraphic" in2="effect1_dropShadow_66_328" result="shape"/>
</filter>
<filter id="filter2_d_66_328" x="0" y="260" width="258" height="58" filterUnits="userSpaceOnUse" color-interpolation-filters="sRGB">
<feFlood flood-opacity="0" result="BackgroundImageFix"/>
<feColorMatrix in="SourceAlpha" type="matrix" values="0 0 0 0 0 0 0 0 0 0 0 0 0 0 0 0 0 0 127 0" result="hardAlpha"/>
<feOffset dy="4"/>
<feGaussianBlur stdDeviation="2"/>
<feComposite in2="hardAlpha" operator="out"/>
<feColorMatrix type="matrix" values="0 0 0 0 0 0 0 0 0 0 0 0 0 0 0 0 0 0 0.25 0"/>
<feBlend mode="normal" in2="BackgroundImageFix" result="effect1_dropShadow_66_328"/>
<feBlend mode="normal" in="SourceGraphic" in2="effect1_dropShadow_66_328" result="shape"/>
</filter>
<filter id="filter3_d_66_328" x="0" y="201" width="257" height="58" filterUnits="userSpaceOnUse" color-interpolation-filters="sRGB">
<feFlood flood-opacity="0" result="BackgroundImageFix"/>
<feColorMatrix in="SourceAlpha" type="matrix" values="0 0 0 0 0 0 0 0 0 0 0 0 0 0 0 0 0 0 127 0" result="hardAlpha"/>
<feOffset dy="4"/>
<feGaussianBlur stdDeviation="2"/>
<feComposite in2="hardAlpha" operator="out"/>
<feColorMatrix type="matrix" values="0 0 0 0 0 0 0 0 0 0 0 0 0 0 0 0 0 0 0.25 0"/>
<feBlend mode="normal" in2="BackgroundImageFix" result="effect1_dropShadow_66_328"/>
<feBlend mode="normal" in="SourceGraphic" in2="effect1_dropShadow_66_328" result="shape"/>
</filter>
<filter id="filter4_d_66_328" x="0" y="141" width="257" height="58" filterUnits="userSpaceOnUse" color-interpolation-filters="sRGB">
<feFlood flood-opacity="0" result="BackgroundImageFix"/>
<feColorMatrix in="SourceAlpha" type="matrix" values="0 0 0 0 0 0 0 0 0 0 0 0 0 0 0 0 0 0 127 0" result="hardAlpha"/>
<feOffset dy="4"/>
<feGaussianBlur stdDeviation="2"/>
<feComposite in2="hardAlpha" operator="out"/>
<feColorMatrix type="matrix" values="0 0 0 0 0 0 0 0 0 0 0 0 0 0 0 0 0 0 0.25 0"/>
<feBlend mode="normal" in2="BackgroundImageFix" result="effect1_dropShadow_66_328"/>
<feBlend mode="normal" in="SourceGraphic" in2="effect1_dropShadow_66_328" result="shape"/>
</filter>
<filter id="filter5_d_66_328" x="0" y="82" width="257" height="58" filterUnits="userSpaceOnUse" color-interpolation-filters="sRGB">
<feFlood flood-opacity="0" result="BackgroundImageFix"/>
<feColorMatrix in="SourceAlpha" type="matrix" values="0 0 0 0 0 0 0 0 0 0 0 0 0 0 0 0 0 0 127 0" result="hardAlpha"/>
<feOffset dy="4"/>
<feGaussianBlur stdDeviation="2"/>
<feComposite in2="hardAlpha" operator="out"/>
<feColorMatrix type="matrix" values="0 0 0 0 0 0 0 0 0 0 0 0 0 0 0 0 0 0 0.25 0"/>
<feBlend mode="normal" in2="BackgroundImageFix" result="effect1_dropShadow_66_328"/>
<feBlend mode="normal" in="SourceGraphic" in2="effect1_dropShadow_66_328" result="shape"/>
</filter>
<filter id="filter6_d_66_328" x="0" y="23" width="255" height="58" filterUnits="userSpaceOnUse" color-interpolation-filters="sRGB">
<feFlood flood-opacity="0" result="BackgroundImageFix"/>
<feColorMatrix in="SourceAlpha" type="matrix" values="0 0 0 0 0 0 0 0 0 0 0 0 0 0 0 0 0 0 127 0" result="hardAlpha"/>
<feOffset dy="4"/>
<feGaussianBlur stdDeviation="2"/>
<feComposite in2="hardAlpha" operator="out"/>
<feColorMatrix type="matrix" values="0 0 0 0 0 0 0 0 0 0 0 0 0 0 0 0 0 0 0.25 0"/>
<feBlend mode="normal" in2="BackgroundImageFix" result="effect1_dropShadow_66_328"/>
<feBlend mode="normal" in="SourceGraphic" in2="effect1_dropShadow_66_328" result="shape"/>
</filter>
</defs>
</svg>
